<mxfile host="app.diagrams.net" agent="Mozilla/5.0 (Windows NT 10.0; Win64; x64) AppleWebKit/537.36 (KHTML, like Gecko) Chrome/122.0.0.0 Safari/537.36" version="27.1.6" pages="16">
  <diagram id="6a731a19-8d31-9384-78a2-239565b7b9f0" name="登录">
    <mxGraphModel dx="1042" dy="571" grid="0" gridSize="10" guides="1" tooltips="1" connect="1" arrows="1" fold="1" page="1" pageScale="1" pageWidth="1169" pageHeight="827" background="none" math="0" shadow="0">
      <root>
        <mxCell id="0" />
        <mxCell id="1" parent="0" />
        <mxCell id="FAK5STi-OlCkXibjIcqn-14" value="" style="shape=parallelogram;perimeter=parallelogramPerimeter;whiteSpace=wrap;html=1;fixedSize=1;size=30.999989827474053;" vertex="1" parent="1">
          <mxGeometry x="582" y="79" width="120" height="60" as="geometry" />
        </mxCell>
        <mxCell id="FAK5STi-OlCkXibjIcqn-16" value="" style="rounded=0;whiteSpace=wrap;html=1;" vertex="1" parent="1">
          <mxGeometry x="622" y="260" width="120" height="60" as="geometry" />
        </mxCell>
        <mxCell id="FAK5STi-OlCkXibjIcqn-17" value="" style="rhombus;whiteSpace=wrap;html=1;strokeColor=default;align=center;verticalAlign=middle;fontFamily=Helvetica;fontSize=12;fontColor=default;fillColor=default;" vertex="1" parent="1">
          <mxGeometry x="574" y="420" width="80" height="80" as="geometry" />
        </mxCell>
        <mxCell id="FAK5STi-OlCkXibjIcqn-46" value="&lt;font&gt;开始&lt;/font&gt;" style="shape=mxgraph.flowchart.terminator;strokeWidth=1;gradientColor=none;gradientDirection=north;fontStyle=0;html=1;strokeColor=default;fontFamily=宋体;fontSize=25;" vertex="1" parent="1">
          <mxGeometry x="226.25" y="24" width="120" height="28" as="geometry" />
        </mxCell>
        <mxCell id="FAK5STi-OlCkXibjIcqn-47" value="&lt;font&gt;输入账号（学/工号）&lt;/font&gt;&lt;div&gt;&lt;font&gt;和密码&lt;/font&gt;&lt;/div&gt;" style="shape=parallelogram;perimeter=parallelogramPerimeter;whiteSpace=wrap;html=1;fixedSize=1;size=30.999989827474053;strokeWidth=1;fontFamily=宋体;fontSize=25;" vertex="1" parent="1">
          <mxGeometry x="134.82" y="92" width="302.88" height="83" as="geometry" />
        </mxCell>
        <mxCell id="FAK5STi-OlCkXibjIcqn-48" value="&lt;font&gt;判断数据格式&lt;/font&gt;&lt;div&gt;&lt;font&gt;是否正确？&lt;/font&gt;&lt;/div&gt;" style="shape=mxgraph.flowchart.decision;strokeWidth=1;gradientColor=none;gradientDirection=north;fontStyle=0;html=1;strokeColor=default;align=center;verticalAlign=middle;fontFamily=宋体;fontSize=25;fontColor=default;fillColor=default;" vertex="1" parent="1">
          <mxGeometry x="155.01" y="196" width="262.5" height="106" as="geometry" />
        </mxCell>
        <mxCell id="FAK5STi-OlCkXibjIcqn-49" style="fontStyle=1;strokeColor=#003366;strokeWidth=1;html=1;fontFamily=宋体;fontSize=25;" edge="1" parent="1" source="FAK5STi-OlCkXibjIcqn-46" target="FAK5STi-OlCkXibjIcqn-47">
          <mxGeometry relative="1" as="geometry" />
        </mxCell>
        <mxCell id="FAK5STi-OlCkXibjIcqn-50" style="entryX=0.5;entryY=0;entryPerimeter=0;fontStyle=1;strokeColor=#003366;strokeWidth=1;html=1;exitX=0.5;exitY=1;exitDx=0;exitDy=0;exitPerimeter=0;fontFamily=宋体;fontSize=25;" edge="1" parent="1" source="FAK5STi-OlCkXibjIcqn-47" target="FAK5STi-OlCkXibjIcqn-48">
          <mxGeometry relative="1" as="geometry">
            <mxPoint x="286.25" y="292" as="sourcePoint" />
          </mxGeometry>
        </mxCell>
        <mxCell id="FAK5STi-OlCkXibjIcqn-51" value="&lt;font&gt;是&lt;/font&gt;" style="text;fontStyle=0;html=1;strokeColor=none;gradientColor=none;fillColor=none;strokeWidth=2;fontFamily=宋体;fontSize=25;" vertex="1" parent="1">
          <mxGeometry x="287.25" y="292" width="40" height="26" as="geometry" />
        </mxCell>
        <mxCell id="FAK5STi-OlCkXibjIcqn-52" value="" style="edgeStyle=elbowEdgeStyle;elbow=horizontal;fontColor=#001933;fontStyle=1;strokeColor=#003366;strokeWidth=1;html=1;exitX=0.5;exitY=1;exitDx=0;exitDy=0;exitPerimeter=0;entryX=0.5;entryY=0;entryDx=0;entryDy=0;entryPerimeter=0;fontFamily=宋体;fontSize=25;" edge="1" parent="1" source="FAK5STi-OlCkXibjIcqn-48" target="FAK5STi-OlCkXibjIcqn-55">
          <mxGeometry width="100" height="100" as="geometry">
            <mxPoint x="286.22" y="282" as="sourcePoint" />
            <mxPoint x="286.22" y="346" as="targetPoint" />
            <Array as="points">
              <mxPoint x="286.22" y="342" />
            </Array>
          </mxGeometry>
        </mxCell>
        <mxCell id="FAK5STi-OlCkXibjIcqn-53" style="edgeStyle=orthogonalEdgeStyle;rounded=0;orthogonalLoop=1;jettySize=auto;html=1;exitX=0.5;exitY=1;exitDx=0;exitDy=0;exitPerimeter=0;fontFamily=宋体;fontSize=25;" edge="1" parent="1" source="FAK5STi-OlCkXibjIcqn-55" target="FAK5STi-OlCkXibjIcqn-58">
          <mxGeometry relative="1" as="geometry" />
        </mxCell>
        <mxCell id="Y3sfpVDzcdcp6cYx0IF_-1" style="edgeStyle=orthogonalEdgeStyle;rounded=0;orthogonalLoop=1;jettySize=auto;html=1;fontFamily=宋体;fontSize=25;" edge="1" parent="1" source="FAK5STi-OlCkXibjIcqn-55">
          <mxGeometry relative="1" as="geometry">
            <mxPoint x="103" y="372" as="targetPoint" />
          </mxGeometry>
        </mxCell>
        <mxCell id="FAK5STi-OlCkXibjIcqn-55" value="&lt;font&gt;判断账号&lt;/font&gt;&lt;div&gt;&lt;font&gt;是否存在？&lt;/font&gt;&lt;/div&gt;" style="shape=mxgraph.flowchart.decision;strokeWidth=1;gradientColor=none;gradientDirection=north;fontStyle=0;html=1;strokeColor=default;align=center;verticalAlign=middle;fontFamily=宋体;fontSize=25;fontColor=default;fillColor=default;" vertex="1" parent="1">
          <mxGeometry x="141.5" y="333" width="289.5" height="80" as="geometry" />
        </mxCell>
        <mxCell id="FAK5STi-OlCkXibjIcqn-56" style="edgeStyle=orthogonalEdgeStyle;rounded=0;orthogonalLoop=1;jettySize=auto;html=1;fontFamily=宋体;fontSize=25;" edge="1" parent="1" source="FAK5STi-OlCkXibjIcqn-58" target="FAK5STi-OlCkXibjIcqn-60">
          <mxGeometry relative="1" as="geometry" />
        </mxCell>
        <mxCell id="FAK5STi-OlCkXibjIcqn-57" style="edgeStyle=orthogonalEdgeStyle;rounded=0;orthogonalLoop=1;jettySize=auto;html=1;exitX=0;exitY=0.5;exitDx=0;exitDy=0;exitPerimeter=0;fontFamily=宋体;fontSize=25;" edge="1" parent="1" source="FAK5STi-OlCkXibjIcqn-58" target="FAK5STi-OlCkXibjIcqn-47">
          <mxGeometry relative="1" as="geometry">
            <mxPoint x="156" y="118" as="targetPoint" />
            <Array as="points">
              <mxPoint x="103" y="497" />
              <mxPoint x="103" y="135" />
            </Array>
          </mxGeometry>
        </mxCell>
        <mxCell id="FAK5STi-OlCkXibjIcqn-58" value="&lt;font&gt;判断密码&lt;/font&gt;&lt;div&gt;&lt;font&gt;是否正确？&lt;/font&gt;&lt;/div&gt;" style="shape=mxgraph.flowchart.decision;strokeWidth=1;gradientColor=none;gradientDirection=north;fontStyle=0;html=1;strokeColor=default;align=center;verticalAlign=middle;fontFamily=宋体;fontSize=25;fontColor=default;fillColor=default;" vertex="1" parent="1">
          <mxGeometry x="134.82999999999998" y="457" width="302.87" height="80" as="geometry" />
        </mxCell>
        <mxCell id="FAK5STi-OlCkXibjIcqn-59" value="" style="edgeStyle=orthogonalEdgeStyle;rounded=0;orthogonalLoop=1;jettySize=auto;html=1;fontFamily=宋体;fontSize=25;" edge="1" parent="1" source="FAK5STi-OlCkXibjIcqn-60" target="FAK5STi-OlCkXibjIcqn-68">
          <mxGeometry relative="1" as="geometry" />
        </mxCell>
        <mxCell id="FAK5STi-OlCkXibjIcqn-60" value="&lt;font&gt;登录成功，返回数据JWT&lt;/font&gt;" style="rounded=0;whiteSpace=wrap;html=1;strokeColor=default;align=center;verticalAlign=middle;fontFamily=宋体;fontSize=25;fontColor=default;fillColor=default;" vertex="1" parent="1">
          <mxGeometry x="214.14" y="587" width="144.25" height="60" as="geometry" />
        </mxCell>
        <mxCell id="FAK5STi-OlCkXibjIcqn-61" value="&lt;font&gt;是&lt;/font&gt;" style="text;fontStyle=0;html=1;strokeColor=none;gradientColor=none;fillColor=none;strokeWidth=2;fontFamily=宋体;fontSize=25;" vertex="1" parent="1">
          <mxGeometry x="287.25" y="417" width="40" height="26" as="geometry" />
        </mxCell>
        <mxCell id="FAK5STi-OlCkXibjIcqn-62" value="&lt;font&gt;是&lt;/font&gt;" style="text;fontStyle=0;html=1;strokeColor=none;gradientColor=none;fillColor=none;strokeWidth=2;fontFamily=宋体;fontSize=25;" vertex="1" parent="1">
          <mxGeometry x="287.25" y="540" width="40" height="26" as="geometry" />
        </mxCell>
        <mxCell id="FAK5STi-OlCkXibjIcqn-64" value="&lt;font&gt;否&lt;/font&gt;" style="text;fontStyle=0;html=1;strokeColor=none;gradientColor=none;fillColor=none;strokeWidth=2;fontFamily=宋体;fontSize=25;" vertex="1" parent="1">
          <mxGeometry x="423" y="212" width="40" height="26" as="geometry" />
        </mxCell>
        <mxCell id="FAK5STi-OlCkXibjIcqn-65" value="" style="edgeStyle=orthogonalEdgeStyle;rounded=0;orthogonalLoop=1;jettySize=auto;html=1;exitX=1;exitY=0.5;exitDx=0;exitDy=0;exitPerimeter=0;fontFamily=宋体;fontSize=25;" edge="1" parent="1" source="FAK5STi-OlCkXibjIcqn-48" target="FAK5STi-OlCkXibjIcqn-47">
          <mxGeometry relative="1" as="geometry">
            <mxPoint x="351.25" y="247" as="sourcePoint" />
            <mxPoint x="445.04999999999995" y="216.29999999999995" as="targetPoint" />
            <Array as="points">
              <mxPoint x="461" y="249" />
              <mxPoint x="461" y="127" />
            </Array>
          </mxGeometry>
        </mxCell>
        <mxCell id="FAK5STi-OlCkXibjIcqn-68" value="&lt;font&gt;结束&lt;/font&gt;" style="shape=mxgraph.flowchart.terminator;strokeWidth=1;gradientColor=none;gradientDirection=north;fontStyle=0;html=1;fontFamily=宋体;fontSize=25;" vertex="1" parent="1">
          <mxGeometry x="226.26" y="675" width="120" height="30" as="geometry" />
        </mxCell>
        <mxCell id="FAK5STi-OlCkXibjIcqn-70" value="&lt;font&gt;否&lt;/font&gt;" style="text;fontStyle=0;html=1;strokeColor=none;gradientColor=none;fillColor=none;strokeWidth=2;fontFamily=宋体;fontSize=25;" vertex="1" parent="1">
          <mxGeometry x="115.01" y="338" width="40" height="26" as="geometry" />
        </mxCell>
        <mxCell id="FAK5STi-OlCkXibjIcqn-71" value="&lt;font&gt;否&lt;/font&gt;" style="text;fontStyle=0;html=1;strokeColor=none;gradientColor=none;fillColor=none;strokeWidth=2;fontFamily=宋体;fontSize=25;" vertex="1" parent="1">
          <mxGeometry x="105.99999999999999" y="462" width="40" height="26" as="geometry" />
        </mxCell>
      </root>
    </mxGraphModel>
  </diagram>
  <diagram name="注册" id="M8CNBRf8TtUgqmofjct7">
    <mxGraphModel dx="1895" dy="1038" grid="0" gridSize="10" guides="1" tooltips="1" connect="1" arrows="1" fold="1" page="1" pageScale="1" pageWidth="1169" pageHeight="827" background="none" math="0" shadow="0">
      <root>
        <mxCell id="NWBJJtm0vcIBe-9MFRib-0" />
        <mxCell id="NWBJJtm0vcIBe-9MFRib-1" parent="NWBJJtm0vcIBe-9MFRib-0" />
        <mxCell id="NWBJJtm0vcIBe-9MFRib-2" value="&lt;font&gt;开始&lt;/font&gt;" style="shape=mxgraph.flowchart.terminator;strokeWidth=1;gradientColor=none;gradientDirection=north;fontStyle=0;html=1;fontFamily=宋体;fontSize=25;" parent="NWBJJtm0vcIBe-9MFRib-1" vertex="1">
          <mxGeometry x="260" y="60" width="120" height="30" as="geometry" />
        </mxCell>
        <mxCell id="NWBJJtm0vcIBe-9MFRib-3" value="&lt;font&gt;输入要注册的&lt;/font&gt;&lt;div&gt;&lt;font&gt;账号（学号）&lt;/font&gt;&lt;/div&gt;" style="shape=parallelogram;perimeter=parallelogramPerimeter;whiteSpace=wrap;html=1;fixedSize=1;size=30.999989827474053;fontFamily=宋体;fontSize=25;" parent="NWBJJtm0vcIBe-9MFRib-1" vertex="1">
          <mxGeometry x="204.38" y="129" width="231.25" height="80" as="geometry" />
        </mxCell>
        <mxCell id="TuQf8-xPwNKHbWiF1SBS-2" style="edgeStyle=orthogonalEdgeStyle;rounded=0;orthogonalLoop=1;jettySize=auto;html=1;entryX=0.946;entryY=0.509;entryDx=0;entryDy=0;entryPerimeter=0;" edge="1" parent="NWBJJtm0vcIBe-9MFRib-1" source="NWBJJtm0vcIBe-9MFRib-4" target="NWBJJtm0vcIBe-9MFRib-3">
          <mxGeometry relative="1" as="geometry">
            <mxPoint x="520" y="257" as="targetPoint" />
            <Array as="points">
              <mxPoint x="520" y="287" />
              <mxPoint x="520" y="170" />
            </Array>
          </mxGeometry>
        </mxCell>
        <mxCell id="NWBJJtm0vcIBe-9MFRib-4" value="&lt;font&gt;判断账号&lt;/font&gt;&lt;div&gt;&lt;font&gt;是否重复？&lt;/font&gt;&lt;/div&gt;" style="shape=mxgraph.flowchart.decision;strokeWidth=1;gradientColor=none;gradientDirection=north;fontStyle=0;html=1;strokeColor=default;align=center;verticalAlign=middle;fontFamily=宋体;fontSize=25;fontColor=default;fillColor=default;" parent="NWBJJtm0vcIBe-9MFRib-1" vertex="1">
          <mxGeometry x="173.81" y="246" width="288.38" height="80" as="geometry" />
        </mxCell>
        <mxCell id="NWBJJtm0vcIBe-9MFRib-5" style="fontStyle=1;strokeColor=#003366;strokeWidth=1;html=1;fontFamily=宋体;fontSize=25;" parent="NWBJJtm0vcIBe-9MFRib-1" source="NWBJJtm0vcIBe-9MFRib-2" target="NWBJJtm0vcIBe-9MFRib-3" edge="1">
          <mxGeometry relative="1" as="geometry" />
        </mxCell>
        <mxCell id="NWBJJtm0vcIBe-9MFRib-6" style="entryX=0.5;entryY=0;entryPerimeter=0;fontStyle=1;strokeColor=#003366;strokeWidth=1;html=1;exitX=0.5;exitY=1;exitDx=0;exitDy=0;exitPerimeter=0;fontFamily=宋体;fontSize=25;" parent="NWBJJtm0vcIBe-9MFRib-1" source="NWBJJtm0vcIBe-9MFRib-3" target="NWBJJtm0vcIBe-9MFRib-4" edge="1">
          <mxGeometry relative="1" as="geometry">
            <mxPoint x="320" y="330" as="sourcePoint" />
          </mxGeometry>
        </mxCell>
        <mxCell id="NWBJJtm0vcIBe-9MFRib-7" value="&lt;font&gt;是&lt;/font&gt;" style="text;fontStyle=0;html=1;strokeColor=none;gradientColor=none;fillColor=none;strokeWidth=1;fontFamily=宋体;fontSize=25;" parent="NWBJJtm0vcIBe-9MFRib-1" vertex="1">
          <mxGeometry x="323" y="332" width="40" height="26" as="geometry" />
        </mxCell>
        <mxCell id="NWBJJtm0vcIBe-9MFRib-8" value="" style="edgeStyle=elbowEdgeStyle;elbow=horizontal;fontColor=#001933;fontStyle=1;strokeColor=#003366;strokeWidth=1;html=1;exitX=0.5;exitY=1;exitDx=0;exitDy=0;exitPerimeter=0;entryX=0.5;entryY=0;entryDx=0;entryDy=0;fontFamily=宋体;fontSize=25;" parent="NWBJJtm0vcIBe-9MFRib-1" source="NWBJJtm0vcIBe-9MFRib-4" target="XDRFj705AyfAf-yiHPlo-0" edge="1">
          <mxGeometry width="100" height="100" as="geometry">
            <mxPoint x="319.97" y="320" as="sourcePoint" />
            <mxPoint x="320" y="368" as="targetPoint" />
            <Array as="points">
              <mxPoint x="319.97" y="380" />
            </Array>
          </mxGeometry>
        </mxCell>
        <mxCell id="NWBJJtm0vcIBe-9MFRib-9" style="edgeStyle=orthogonalEdgeStyle;rounded=0;orthogonalLoop=1;jettySize=auto;html=1;strokeWidth=1;fontFamily=宋体;fontSize=25;" parent="NWBJJtm0vcIBe-9MFRib-1" source="XDRFj705AyfAf-yiHPlo-0" target="NWBJJtm0vcIBe-9MFRib-14" edge="1">
          <mxGeometry relative="1" as="geometry">
            <mxPoint x="320" y="448" as="sourcePoint" />
            <Array as="points">
              <mxPoint x="318" y="443" />
              <mxPoint x="318" y="443" />
            </Array>
          </mxGeometry>
        </mxCell>
        <mxCell id="NWBJJtm0vcIBe-9MFRib-12" style="edgeStyle=orthogonalEdgeStyle;rounded=0;orthogonalLoop=1;jettySize=auto;html=1;strokeWidth=1;fontFamily=宋体;fontSize=25;" parent="NWBJJtm0vcIBe-9MFRib-1" source="NWBJJtm0vcIBe-9MFRib-14" target="NWBJJtm0vcIBe-9MFRib-16" edge="1">
          <mxGeometry relative="1" as="geometry" />
        </mxCell>
        <mxCell id="Hm9i9NyzuGDbXr1iMtHL-1" style="edgeStyle=orthogonalEdgeStyle;rounded=0;orthogonalLoop=1;jettySize=auto;html=1;exitX=1;exitY=0.5;exitDx=0;exitDy=0;exitPerimeter=0;entryX=1;entryY=0.5;entryDx=0;entryDy=0;strokeWidth=1;fontFamily=宋体;fontSize=25;" parent="NWBJJtm0vcIBe-9MFRib-1" source="NWBJJtm0vcIBe-9MFRib-14" target="XDRFj705AyfAf-yiHPlo-0" edge="1">
          <mxGeometry relative="1" as="geometry">
            <mxPoint x="593.5" y="494" as="targetPoint" />
            <Array as="points">
              <mxPoint x="582" y="528" />
              <mxPoint x="582" y="403" />
            </Array>
          </mxGeometry>
        </mxCell>
        <mxCell id="NWBJJtm0vcIBe-9MFRib-14" value="&lt;font&gt;判断两次输入的密码&lt;/font&gt;&lt;div&gt;&lt;font&gt;是否相同？&lt;/font&gt;&lt;/div&gt;" style="shape=mxgraph.flowchart.decision;strokeWidth=1;gradientColor=none;gradientDirection=north;fontStyle=0;html=1;strokeColor=default;align=center;verticalAlign=middle;fontFamily=宋体;fontSize=25;fontColor=default;fillColor=default;" parent="NWBJJtm0vcIBe-9MFRib-1" vertex="1">
          <mxGeometry x="107.94" y="471" width="420.12" height="114" as="geometry" />
        </mxCell>
        <mxCell id="NWBJJtm0vcIBe-9MFRib-15" value="" style="edgeStyle=orthogonalEdgeStyle;rounded=0;orthogonalLoop=1;jettySize=auto;html=1;strokeWidth=1;fontFamily=宋体;fontSize=25;" parent="NWBJJtm0vcIBe-9MFRib-1" source="NWBJJtm0vcIBe-9MFRib-16" target="NWBJJtm0vcIBe-9MFRib-24" edge="1">
          <mxGeometry relative="1" as="geometry" />
        </mxCell>
        <mxCell id="NWBJJtm0vcIBe-9MFRib-16" value="&lt;font&gt;注册新用户，&lt;/font&gt;&lt;div&gt;&lt;font&gt;返回注册成功&lt;/font&gt;&lt;/div&gt;" style="rounded=0;whiteSpace=wrap;html=1;strokeColor=default;align=center;verticalAlign=middle;fontFamily=宋体;fontSize=25;fontColor=default;fillColor=default;strokeWidth=1;" parent="NWBJJtm0vcIBe-9MFRib-1" vertex="1">
          <mxGeometry x="235.51" y="634" width="164.99" height="65" as="geometry" />
        </mxCell>
        <mxCell id="NWBJJtm0vcIBe-9MFRib-18" value="&lt;font&gt;是&lt;/font&gt;" style="text;fontStyle=0;html=1;strokeColor=none;gradientColor=none;fillColor=none;strokeWidth=1;fontFamily=宋体;fontSize=25;" parent="NWBJJtm0vcIBe-9MFRib-1" vertex="1">
          <mxGeometry x="321" y="578" width="40" height="26" as="geometry" />
        </mxCell>
        <mxCell id="NWBJJtm0vcIBe-9MFRib-20" value="&lt;font&gt;否&lt;/font&gt;" style="text;fontStyle=0;html=1;strokeColor=none;gradientColor=none;fillColor=none;strokeWidth=1;fontFamily=宋体;fontSize=25;" parent="NWBJJtm0vcIBe-9MFRib-1" vertex="1">
          <mxGeometry x="469" y="250" width="40" height="26" as="geometry" />
        </mxCell>
        <mxCell id="NWBJJtm0vcIBe-9MFRib-24" value="&lt;font&gt;结束&lt;/font&gt;" style="shape=mxgraph.flowchart.terminator;strokeWidth=1;gradientColor=none;gradientDirection=north;fontStyle=0;html=1;fontFamily=宋体;fontSize=25;" parent="NWBJJtm0vcIBe-9MFRib-1" vertex="1">
          <mxGeometry x="258" y="752" width="120" height="30" as="geometry" />
        </mxCell>
        <mxCell id="XDRFj705AyfAf-yiHPlo-0" value="&lt;font&gt;输入新密码，&lt;/font&gt;&lt;div&gt;&lt;font&gt;输入两次新密码&lt;/font&gt;&lt;/div&gt;" style="shape=parallelogram;perimeter=parallelogramPerimeter;whiteSpace=wrap;html=1;fixedSize=1;size=30.999989827474053;fontFamily=宋体;fontSize=25;" parent="NWBJJtm0vcIBe-9MFRib-1" vertex="1">
          <mxGeometry x="190.12" y="373" width="259.75" height="60" as="geometry" />
        </mxCell>
        <mxCell id="Hm9i9NyzuGDbXr1iMtHL-3" value="&lt;font&gt;否&lt;/font&gt;" style="text;fontStyle=0;html=1;strokeColor=none;gradientColor=none;fillColor=none;strokeWidth=1;fontFamily=宋体;fontSize=25;" parent="NWBJJtm0vcIBe-9MFRib-1" vertex="1">
          <mxGeometry x="540" y="494" width="40" height="26" as="geometry" />
        </mxCell>
        <mxCell id="RUulJI6a2RSw2SwswIm2-0" value="" style="shape=parallelogram;perimeter=parallelogramPerimeter;whiteSpace=wrap;html=1;fixedSize=1;size=30.999989827474053;" vertex="1" parent="NWBJJtm0vcIBe-9MFRib-1">
          <mxGeometry x="768" y="238" width="120" height="60" as="geometry" />
        </mxCell>
        <mxCell id="RUulJI6a2RSw2SwswIm2-1" value="" style="rounded=0;whiteSpace=wrap;html=1;" vertex="1" parent="NWBJJtm0vcIBe-9MFRib-1">
          <mxGeometry x="808" y="419" width="120" height="60" as="geometry" />
        </mxCell>
        <mxCell id="RUulJI6a2RSw2SwswIm2-2" value="" style="rhombus;whiteSpace=wrap;html=1;strokeColor=default;align=center;verticalAlign=middle;fontFamily=Helvetica;fontSize=12;fontColor=default;fillColor=default;" vertex="1" parent="NWBJJtm0vcIBe-9MFRib-1">
          <mxGeometry x="760" y="579" width="80" height="80" as="geometry" />
        </mxCell>
      </root>
    </mxGraphModel>
  </diagram>
  <diagram name="修改密码" id="Meh-bq0IPyK3MCXsR9mE">
    <mxGraphModel dx="1737" dy="952" grid="0" gridSize="10" guides="1" tooltips="1" connect="1" arrows="1" fold="1" page="1" pageScale="1" pageWidth="1169" pageHeight="827" background="none" math="0" shadow="0">
      <root>
        <mxCell id="4Vml-jVjkxAf96VHodCM-0" />
        <mxCell id="4Vml-jVjkxAf96VHodCM-1" parent="4Vml-jVjkxAf96VHodCM-0" />
        <mxCell id="4Vml-jVjkxAf96VHodCM-2" value="&lt;font&gt;开始&lt;/font&gt;" style="shape=mxgraph.flowchart.terminator;strokeWidth=1;gradientColor=none;gradientDirection=north;fontStyle=0;html=1;fontSize=25;fontFamily=宋体;" parent="4Vml-jVjkxAf96VHodCM-1" vertex="1">
          <mxGeometry x="260" y="60" width="120" height="30" as="geometry" />
        </mxCell>
        <mxCell id="4Vml-jVjkxAf96VHodCM-3" value="&lt;font&gt;输入原密码&lt;/font&gt;" style="shape=parallelogram;perimeter=parallelogramPerimeter;whiteSpace=wrap;html=1;fixedSize=1;size=30.999989827474053;strokeWidth=1;fontSize=25;fontFamily=宋体;" parent="4Vml-jVjkxAf96VHodCM-1" vertex="1">
          <mxGeometry x="240.5" y="130" width="159" height="80" as="geometry" />
        </mxCell>
        <mxCell id="4Vml-jVjkxAf96VHodCM-5" style="fontStyle=1;strokeColor=#003366;strokeWidth=1;html=1;fontSize=25;fontFamily=宋体;" parent="4Vml-jVjkxAf96VHodCM-1" source="4Vml-jVjkxAf96VHodCM-2" target="4Vml-jVjkxAf96VHodCM-3" edge="1">
          <mxGeometry relative="1" as="geometry" />
        </mxCell>
        <mxCell id="4Vml-jVjkxAf96VHodCM-8" value="" style="edgeStyle=elbowEdgeStyle;elbow=horizontal;fontColor=#001933;fontStyle=1;strokeColor=#003366;strokeWidth=1;html=1;exitX=0.484;exitY=0.99;exitDx=0;exitDy=0;exitPerimeter=0;entryX=0.51;entryY=0.011;entryDx=0;entryDy=0;entryPerimeter=0;fontSize=25;fontFamily=宋体;" parent="4Vml-jVjkxAf96VHodCM-1" source="4Vml-jVjkxAf96VHodCM-3" target="4Vml-jVjkxAf96VHodCM-21" edge="1">
          <mxGeometry width="100" height="100" as="geometry">
            <mxPoint x="317.5" y="214" as="sourcePoint" />
            <mxPoint x="317.5" y="257" as="targetPoint" />
            <Array as="points">
              <mxPoint x="317.47" y="269" />
            </Array>
          </mxGeometry>
        </mxCell>
        <mxCell id="4Vml-jVjkxAf96VHodCM-9" style="edgeStyle=orthogonalEdgeStyle;rounded=0;orthogonalLoop=1;jettySize=auto;html=1;strokeWidth=1;fontSize=25;fontFamily=宋体;" parent="4Vml-jVjkxAf96VHodCM-1" source="4Vml-jVjkxAf96VHodCM-21" target="4Vml-jVjkxAf96VHodCM-12" edge="1">
          <mxGeometry relative="1" as="geometry">
            <mxPoint x="316.5" y="325" as="sourcePoint" />
          </mxGeometry>
        </mxCell>
        <mxCell id="4Vml-jVjkxAf96VHodCM-10" style="edgeStyle=orthogonalEdgeStyle;rounded=0;orthogonalLoop=1;jettySize=auto;html=1;entryX=0.5;entryY=0;entryDx=0;entryDy=0;entryPerimeter=0;strokeWidth=1;fontSize=25;fontFamily=宋体;" parent="4Vml-jVjkxAf96VHodCM-1" source="4Vml-jVjkxAf96VHodCM-12" target="Xq8Z3eJdLvGg3oaHK79f-0" edge="1">
          <mxGeometry relative="1" as="geometry">
            <mxPoint x="315" y="503" as="targetPoint" />
          </mxGeometry>
        </mxCell>
        <mxCell id="4Vml-jVjkxAf96VHodCM-12" value="&lt;font&gt;判断两次输入&lt;/font&gt;&lt;span style=&quot;background-color: transparent;&quot;&gt;的&lt;/span&gt;&lt;div&gt;&lt;font&gt;密码&lt;/font&gt;&lt;span style=&quot;background-color: transparent;&quot;&gt;是否相同？&lt;/span&gt;&lt;/div&gt;" style="shape=mxgraph.flowchart.decision;strokeWidth=1;gradientColor=none;gradientDirection=north;fontStyle=0;html=1;strokeColor=default;align=center;verticalAlign=middle;fontFamily=宋体;fontSize=25;fontColor=default;fillColor=default;" parent="4Vml-jVjkxAf96VHodCM-1" vertex="1">
          <mxGeometry x="154.57" y="345" width="320.87" height="108" as="geometry" />
        </mxCell>
        <mxCell id="4Vml-jVjkxAf96VHodCM-13" value="" style="edgeStyle=orthogonalEdgeStyle;rounded=0;orthogonalLoop=1;jettySize=auto;html=1;strokeWidth=1;fontSize=25;fontFamily=宋体;" parent="4Vml-jVjkxAf96VHodCM-1" source="4Vml-jVjkxAf96VHodCM-14" target="4Vml-jVjkxAf96VHodCM-20" edge="1">
          <mxGeometry relative="1" as="geometry" />
        </mxCell>
        <mxCell id="4Vml-jVjkxAf96VHodCM-14" value="&lt;font&gt;修改密码成功，&lt;/font&gt;&lt;div&gt;&lt;font&gt;跳转到登陆界面，&lt;/font&gt;&lt;/div&gt;&lt;div&gt;&lt;font&gt;清除redis中缓存的JWT&lt;/font&gt;&lt;/div&gt;" style="rounded=0;whiteSpace=wrap;html=1;strokeColor=default;align=center;verticalAlign=middle;fontFamily=宋体;fontSize=25;fontColor=default;fillColor=default;strokeWidth=1;" parent="4Vml-jVjkxAf96VHodCM-1" vertex="1">
          <mxGeometry x="185.75" y="637" width="258.51" height="110" as="geometry" />
        </mxCell>
        <mxCell id="4Vml-jVjkxAf96VHodCM-15" value="&lt;font&gt;是&lt;/font&gt;" style="text;fontStyle=0;html=1;strokeColor=none;gradientColor=none;fillColor=none;strokeWidth=1;fontSize=25;fontFamily=宋体;" parent="4Vml-jVjkxAf96VHodCM-1" vertex="1">
          <mxGeometry x="322" y="468" width="40" height="26" as="geometry" />
        </mxCell>
        <mxCell id="4Vml-jVjkxAf96VHodCM-20" value="&lt;font&gt;结束&lt;/font&gt;" style="shape=mxgraph.flowchart.terminator;strokeWidth=1;gradientColor=none;gradientDirection=north;fontStyle=0;html=1;fontSize=25;fontFamily=宋体;" parent="4Vml-jVjkxAf96VHodCM-1" vertex="1">
          <mxGeometry x="255.01" y="770" width="120" height="30" as="geometry" />
        </mxCell>
        <mxCell id="4Vml-jVjkxAf96VHodCM-21" value="&lt;font&gt;输入新密码，&lt;/font&gt;&lt;div&gt;&lt;font&gt;二次输入新密码&lt;/font&gt;&lt;/div&gt;" style="shape=parallelogram;perimeter=parallelogramPerimeter;whiteSpace=wrap;html=1;fixedSize=1;size=30.999989827474053;strokeWidth=1;fontSize=25;fontFamily=宋体;" parent="4Vml-jVjkxAf96VHodCM-1" vertex="1">
          <mxGeometry x="202.01" y="252" width="226" height="60" as="geometry" />
        </mxCell>
        <mxCell id="4Vml-jVjkxAf96VHodCM-24" value="&lt;font&gt;否&lt;/font&gt;" style="text;fontStyle=0;html=1;strokeColor=none;gradientColor=none;fillColor=none;strokeWidth=1;fontSize=25;fontFamily=宋体;" parent="4Vml-jVjkxAf96VHodCM-1" vertex="1">
          <mxGeometry x="503" y="363" width="40" height="26" as="geometry" />
        </mxCell>
        <mxCell id="Xq8Z3eJdLvGg3oaHK79f-1" value="" style="edgeStyle=orthogonalEdgeStyle;rounded=0;orthogonalLoop=1;jettySize=auto;html=1;strokeWidth=1;fontSize=25;fontFamily=宋体;" parent="4Vml-jVjkxAf96VHodCM-1" source="Xq8Z3eJdLvGg3oaHK79f-0" target="4Vml-jVjkxAf96VHodCM-14" edge="1">
          <mxGeometry relative="1" as="geometry" />
        </mxCell>
        <mxCell id="Xq8Z3eJdLvGg3oaHK79f-3" style="edgeStyle=orthogonalEdgeStyle;rounded=0;orthogonalLoop=1;jettySize=auto;html=1;strokeWidth=1;fontSize=25;fontFamily=宋体;" parent="4Vml-jVjkxAf96VHodCM-1" source="Xq8Z3eJdLvGg3oaHK79f-0" target="4Vml-jVjkxAf96VHodCM-3" edge="1">
          <mxGeometry relative="1" as="geometry">
            <mxPoint x="131" y="262" as="targetPoint" />
            <Array as="points">
              <mxPoint x="120" y="566" />
              <mxPoint x="120" y="170" />
            </Array>
          </mxGeometry>
        </mxCell>
        <mxCell id="Xq8Z3eJdLvGg3oaHK79f-0" value="&lt;font&gt;判断原密码是否正确&lt;/font&gt;" style="shape=mxgraph.flowchart.decision;strokeWidth=1;gradientColor=none;gradientDirection=north;fontStyle=0;html=1;strokeColor=default;align=center;verticalAlign=middle;fontFamily=宋体;fontSize=25;fontColor=default;fillColor=default;" parent="4Vml-jVjkxAf96VHodCM-1" vertex="1">
          <mxGeometry x="166.31" y="526" width="297.37" height="80" as="geometry" />
        </mxCell>
        <mxCell id="Xq8Z3eJdLvGg3oaHK79f-2" value="&lt;font&gt;是&lt;/font&gt;" style="text;fontStyle=0;html=1;strokeColor=none;gradientColor=none;fillColor=none;strokeWidth=1;fontSize=25;fontFamily=宋体;" parent="4Vml-jVjkxAf96VHodCM-1" vertex="1">
          <mxGeometry x="317" y="600" width="40" height="26" as="geometry" />
        </mxCell>
        <mxCell id="RBzimzWCwHKqLACXxMBq-4" value="&lt;font&gt;否&lt;/font&gt;" style="text;fontStyle=0;html=1;strokeColor=none;gradientColor=none;fillColor=none;strokeWidth=1;fontSize=25;fontFamily=宋体;" parent="4Vml-jVjkxAf96VHodCM-1" vertex="1">
          <mxGeometry x="132" y="529" width="40" height="26" as="geometry" />
        </mxCell>
        <mxCell id="N2wGw7KiiHZ6AEPXqUUM-0" value="" style="shape=parallelogram;perimeter=parallelogramPerimeter;whiteSpace=wrap;html=1;fixedSize=1;size=30.999989827474053;" vertex="1" parent="4Vml-jVjkxAf96VHodCM-1">
          <mxGeometry x="783" y="195" width="120" height="60" as="geometry" />
        </mxCell>
        <mxCell id="N2wGw7KiiHZ6AEPXqUUM-1" value="" style="rounded=0;whiteSpace=wrap;html=1;" vertex="1" parent="4Vml-jVjkxAf96VHodCM-1">
          <mxGeometry x="823" y="376" width="120" height="60" as="geometry" />
        </mxCell>
        <mxCell id="N2wGw7KiiHZ6AEPXqUUM-2" value="" style="rhombus;whiteSpace=wrap;html=1;strokeColor=default;align=center;verticalAlign=middle;fontFamily=Helvetica;fontSize=12;fontColor=default;fillColor=default;" vertex="1" parent="4Vml-jVjkxAf96VHodCM-1">
          <mxGeometry x="775" y="536" width="80" height="80" as="geometry" />
        </mxCell>
        <mxCell id="cqTMzt2x-7jkaN6Orxoy-1" style="edgeStyle=orthogonalEdgeStyle;rounded=0;orthogonalLoop=1;jettySize=auto;html=1;entryX=0.951;entryY=0.414;entryDx=0;entryDy=0;entryPerimeter=0;strokeWidth=1;fontSize=25;fontFamily=宋体;exitX=1;exitY=0.5;exitDx=0;exitDy=0;exitPerimeter=0;" edge="1" parent="4Vml-jVjkxAf96VHodCM-1" source="4Vml-jVjkxAf96VHodCM-12" target="4Vml-jVjkxAf96VHodCM-21">
          <mxGeometry relative="1" as="geometry">
            <Array as="points">
              <mxPoint x="595" y="400" />
              <mxPoint x="595" y="277" />
            </Array>
          </mxGeometry>
        </mxCell>
      </root>
    </mxGraphModel>
  </diagram>
  <diagram name="修改个人信息" id="vpta6Am2QkgeVJjqi4LC">
    <mxGraphModel dx="1226" dy="672" grid="0" gridSize="10" guides="1" tooltips="1" connect="1" arrows="1" fold="1" page="1" pageScale="1" pageWidth="1169" pageHeight="827" background="none" math="0" shadow="0">
      <root>
        <mxCell id="-RdLMX7hdvDLlt4LgXD--0" />
        <mxCell id="-RdLMX7hdvDLlt4LgXD--1" parent="-RdLMX7hdvDLlt4LgXD--0" />
        <mxCell id="E7pCgrR4PeQQlXqrUuhm-1" value="" style="edgeStyle=orthogonalEdgeStyle;rounded=0;orthogonalLoop=1;jettySize=auto;html=1;" edge="1" parent="-RdLMX7hdvDLlt4LgXD--1" source="-RdLMX7hdvDLlt4LgXD--2" target="E7pCgrR4PeQQlXqrUuhm-0">
          <mxGeometry relative="1" as="geometry" />
        </mxCell>
        <mxCell id="-RdLMX7hdvDLlt4LgXD--2" value="&lt;font&gt;开始&lt;/font&gt;" style="shape=mxgraph.flowchart.terminator;strokeWidth=1;gradientColor=none;gradientDirection=north;fontStyle=0;html=1;fontFamily=宋体;fontSize=25;" parent="-RdLMX7hdvDLlt4LgXD--1" vertex="1">
          <mxGeometry x="260.01" y="29" width="120" height="30" as="geometry" />
        </mxCell>
        <mxCell id="1pYdkm6Og0ujO1-LcD6Z-0" style="edgeStyle=orthogonalEdgeStyle;rounded=0;orthogonalLoop=1;jettySize=auto;html=1;fontFamily=宋体;fontSize=25;strokeWidth=1;" parent="-RdLMX7hdvDLlt4LgXD--1" source="-RdLMX7hdvDLlt4LgXD--3" target="-RdLMX7hdvDLlt4LgXD--9" edge="1">
          <mxGeometry relative="1" as="geometry" />
        </mxCell>
        <mxCell id="-RdLMX7hdvDLlt4LgXD--3" value="&lt;font&gt;填写要修改的&lt;/font&gt;&lt;div&gt;&lt;font&gt;用户信息表单&lt;/font&gt;&lt;/div&gt;" style="shape=parallelogram;perimeter=parallelogramPerimeter;whiteSpace=wrap;html=1;fixedSize=1;size=30.999989827474053;fontFamily=宋体;fontSize=25;strokeWidth=1;" parent="-RdLMX7hdvDLlt4LgXD--1" vertex="1">
          <mxGeometry x="222.13" y="179" width="195.75" height="80" as="geometry" />
        </mxCell>
        <mxCell id="-RdLMX7hdvDLlt4LgXD--8" style="edgeStyle=orthogonalEdgeStyle;rounded=0;orthogonalLoop=1;jettySize=auto;html=1;exitX=1;exitY=0.5;exitDx=0;exitDy=0;exitPerimeter=0;fontFamily=宋体;fontSize=25;strokeWidth=1;entryX=1;entryY=0.5;entryDx=0;entryDy=0;" parent="-RdLMX7hdvDLlt4LgXD--1" source="-RdLMX7hdvDLlt4LgXD--9" target="-RdLMX7hdvDLlt4LgXD--3" edge="1">
          <mxGeometry relative="1" as="geometry">
            <mxPoint x="402" y="172" as="targetPoint" />
            <Array as="points">
              <mxPoint x="482" y="346" />
              <mxPoint x="504" y="346" />
              <mxPoint x="504" y="219" />
            </Array>
          </mxGeometry>
        </mxCell>
        <mxCell id="1pYdkm6Og0ujO1-LcD6Z-2" style="edgeStyle=orthogonalEdgeStyle;rounded=0;orthogonalLoop=1;jettySize=auto;html=1;fontFamily=宋体;fontSize=25;strokeWidth=1;" parent="-RdLMX7hdvDLlt4LgXD--1" source="-RdLMX7hdvDLlt4LgXD--9" target="-RdLMX7hdvDLlt4LgXD--11" edge="1">
          <mxGeometry relative="1" as="geometry" />
        </mxCell>
        <mxCell id="-RdLMX7hdvDLlt4LgXD--9" value="&lt;span style=&quot;background-color: transparent;&quot;&gt;&lt;font&gt;判断表单信息&lt;/font&gt;&lt;/span&gt;&lt;div&gt;&lt;span style=&quot;background-color: transparent;&quot;&gt;&lt;font&gt;格式&lt;/font&gt;&lt;/span&gt;&lt;span style=&quot;background-color: transparent;&quot;&gt;是否正确？&lt;/span&gt;&lt;/div&gt;" style="shape=mxgraph.flowchart.decision;strokeWidth=1;gradientColor=none;gradientDirection=north;fontStyle=0;html=1;fontFamily=宋体;fontSize=25;" parent="-RdLMX7hdvDLlt4LgXD--1" vertex="1">
          <mxGeometry x="158.39" y="299" width="323.25" height="96" as="geometry" />
        </mxCell>
        <mxCell id="-RdLMX7hdvDLlt4LgXD--10" value="" style="edgeStyle=orthogonalEdgeStyle;rounded=0;orthogonalLoop=1;jettySize=auto;html=1;fontFamily=宋体;fontSize=25;strokeWidth=1;" parent="-RdLMX7hdvDLlt4LgXD--1" source="-RdLMX7hdvDLlt4LgXD--11" target="-RdLMX7hdvDLlt4LgXD--13" edge="1">
          <mxGeometry relative="1" as="geometry" />
        </mxCell>
        <mxCell id="-RdLMX7hdvDLlt4LgXD--11" value="&lt;font&gt;修改成功，&lt;/font&gt;&lt;div&gt;&lt;font&gt;刷新个人资料信息&lt;/font&gt;&lt;/div&gt;" style="rounded=0;whiteSpace=wrap;html=1;strokeColor=default;align=center;verticalAlign=middle;fontFamily=宋体;fontSize=25;fontColor=default;fillColor=default;strokeWidth=1;" parent="-RdLMX7hdvDLlt4LgXD--1" vertex="1">
          <mxGeometry x="216.19" y="431" width="207.63" height="66" as="geometry" />
        </mxCell>
        <mxCell id="-RdLMX7hdvDLlt4LgXD--13" value="&lt;font&gt;结束&lt;/font&gt;" style="shape=mxgraph.flowchart.terminator;strokeWidth=1;gradientColor=none;gradientDirection=north;fontStyle=0;html=1;fontFamily=宋体;fontSize=25;" parent="-RdLMX7hdvDLlt4LgXD--1" vertex="1">
          <mxGeometry x="260.01" y="534" width="120" height="30" as="geometry" />
        </mxCell>
        <mxCell id="-RdLMX7hdvDLlt4LgXD--17" value="&lt;font&gt;否&lt;/font&gt;" style="text;fontStyle=0;html=1;strokeColor=none;gradientColor=none;fillColor=none;strokeWidth=1;fontFamily=宋体;fontSize=25;" parent="-RdLMX7hdvDLlt4LgXD--1" vertex="1">
          <mxGeometry x="476" y="310" width="40" height="26" as="geometry" />
        </mxCell>
        <mxCell id="1Q9-vf70iYvfWfuQRIKy-0" value="&lt;font&gt;是&lt;/font&gt;" style="text;html=1;align=center;verticalAlign=middle;resizable=0;points=[];autosize=1;strokeColor=none;fillColor=none;fontFamily=宋体;fontSize=25;strokeWidth=1;" parent="-RdLMX7hdvDLlt4LgXD--1" vertex="1">
          <mxGeometry x="324.01" y="389" width="43" height="42" as="geometry" />
        </mxCell>
        <mxCell id="E7pCgrR4PeQQlXqrUuhm-2" value="" style="edgeStyle=orthogonalEdgeStyle;rounded=0;orthogonalLoop=1;jettySize=auto;html=1;" edge="1" parent="-RdLMX7hdvDLlt4LgXD--1" source="E7pCgrR4PeQQlXqrUuhm-0" target="-RdLMX7hdvDLlt4LgXD--3">
          <mxGeometry relative="1" as="geometry" />
        </mxCell>
        <mxCell id="E7pCgrR4PeQQlXqrUuhm-0" value="点击修改按钮" style="shape=parallelogram;perimeter=parallelogramPerimeter;whiteSpace=wrap;html=1;fixedSize=1;size=30.999989827474053;fontFamily=宋体;fontSize=25;strokeWidth=1;" vertex="1" parent="-RdLMX7hdvDLlt4LgXD--1">
          <mxGeometry x="222.13" y="87" width="195.75" height="64" as="geometry" />
        </mxCell>
      </root>
    </mxGraphModel>
  </diagram>
  <diagram name="新增用户" id="XxX0FWIyGfM9bsz0D55-">
    <mxGraphModel dx="1158" dy="1461" grid="0" gridSize="10" guides="1" tooltips="1" connect="1" arrows="1" fold="1" page="1" pageScale="1" pageWidth="1169" pageHeight="827" background="none" math="0" shadow="0">
      <root>
        <mxCell id="iQX4BAwCXbjmUn3e2jPd-0" />
        <mxCell id="iQX4BAwCXbjmUn3e2jPd-1" parent="iQX4BAwCXbjmUn3e2jPd-0" />
        <mxCell id="3BAZZO1Yn0zYDWdrDDDq-2" value="" style="edgeStyle=orthogonalEdgeStyle;rounded=0;orthogonalLoop=1;jettySize=auto;html=1;" edge="1" parent="iQX4BAwCXbjmUn3e2jPd-1" source="iQX4BAwCXbjmUn3e2jPd-2" target="3BAZZO1Yn0zYDWdrDDDq-1">
          <mxGeometry relative="1" as="geometry" />
        </mxCell>
        <mxCell id="iQX4BAwCXbjmUn3e2jPd-2" value="&lt;font&gt;开始&lt;/font&gt;" style="shape=mxgraph.flowchart.terminator;strokeWidth=1;gradientColor=none;gradientDirection=north;fontStyle=0;html=1;fontFamily=宋体;fontSize=25;" parent="iQX4BAwCXbjmUn3e2jPd-1" vertex="1">
          <mxGeometry x="259.99" y="-30" width="120" height="30" as="geometry" />
        </mxCell>
        <mxCell id="iQX4BAwCXbjmUn3e2jPd-3" style="edgeStyle=orthogonalEdgeStyle;rounded=0;orthogonalLoop=1;jettySize=auto;html=1;strokeWidth=1;fontFamily=宋体;fontSize=25;" parent="iQX4BAwCXbjmUn3e2jPd-1" source="iQX4BAwCXbjmUn3e2jPd-4" target="iQX4BAwCXbjmUn3e2jPd-8" edge="1">
          <mxGeometry relative="1" as="geometry" />
        </mxCell>
        <mxCell id="iQX4BAwCXbjmUn3e2jPd-4" value="&lt;font&gt;填写要新增的&lt;/font&gt;&lt;div&gt;&lt;font&gt;用户信息表单&lt;/font&gt;&lt;/div&gt;" style="shape=parallelogram;perimeter=parallelogramPerimeter;whiteSpace=wrap;html=1;fixedSize=1;size=30.999989827474053;strokeWidth=1;fontFamily=宋体;fontSize=25;" parent="iQX4BAwCXbjmUn3e2jPd-1" vertex="1">
          <mxGeometry x="223.5" y="131" width="194.5" height="80" as="geometry" />
        </mxCell>
        <mxCell id="iQX4BAwCXbjmUn3e2jPd-6" style="edgeStyle=orthogonalEdgeStyle;rounded=0;orthogonalLoop=1;jettySize=auto;html=1;exitX=1;exitY=0.5;exitDx=0;exitDy=0;exitPerimeter=0;entryX=0.916;entryY=0.538;entryDx=0;entryDy=0;entryPerimeter=0;strokeWidth=1;fontFamily=宋体;fontSize=25;" parent="iQX4BAwCXbjmUn3e2jPd-1" source="iQX4BAwCXbjmUn3e2jPd-8" target="iQX4BAwCXbjmUn3e2jPd-4" edge="1">
          <mxGeometry relative="1" as="geometry">
            <mxPoint x="470.5" y="270" as="targetPoint" />
            <Array as="points">
              <mxPoint x="555" y="300" />
              <mxPoint x="555" y="174" />
            </Array>
          </mxGeometry>
        </mxCell>
        <mxCell id="iQX4BAwCXbjmUn3e2jPd-7" style="edgeStyle=orthogonalEdgeStyle;rounded=0;orthogonalLoop=1;jettySize=auto;html=1;entryX=0.5;entryY=0;entryDx=0;entryDy=0;entryPerimeter=0;strokeWidth=1;fontFamily=宋体;fontSize=25;" parent="iQX4BAwCXbjmUn3e2jPd-1" source="iQX4BAwCXbjmUn3e2jPd-8" target="TLsCk818xWG-sSCKFWpw-0" edge="1">
          <mxGeometry relative="1" as="geometry">
            <mxPoint x="320.7714285714285" y="418" as="targetPoint" />
          </mxGeometry>
        </mxCell>
        <mxCell id="iQX4BAwCXbjmUn3e2jPd-8" value="&lt;span style=&quot;background-color: transparent;&quot;&gt;&lt;font&gt;判断表单信息&lt;/font&gt;&lt;/span&gt;&lt;div&gt;&lt;span style=&quot;background-color: transparent;&quot;&gt;&lt;font&gt;格式&lt;/font&gt;&lt;/span&gt;&lt;span style=&quot;background-color: transparent;&quot;&gt;是否正确？&lt;/span&gt;&lt;/div&gt;" style="shape=mxgraph.flowchart.decision;strokeWidth=1;gradientColor=none;gradientDirection=north;fontStyle=0;html=1;fontFamily=宋体;fontSize=25;" parent="iQX4BAwCXbjmUn3e2jPd-1" vertex="1">
          <mxGeometry x="114" y="260" width="413.5" height="80" as="geometry" />
        </mxCell>
        <mxCell id="iQX4BAwCXbjmUn3e2jPd-11" value="&lt;font&gt;结束&lt;/font&gt;" style="shape=mxgraph.flowchart.terminator;strokeWidth=1;gradientColor=none;gradientDirection=north;fontStyle=0;html=1;fontFamily=宋体;fontSize=25;" parent="iQX4BAwCXbjmUn3e2jPd-1" vertex="1">
          <mxGeometry x="260.75" y="738" width="120" height="30" as="geometry" />
        </mxCell>
        <mxCell id="h2HOim202EjieUB3Oczs-4" style="edgeStyle=orthogonalEdgeStyle;rounded=0;orthogonalLoop=1;jettySize=auto;html=1;strokeWidth=1;fontFamily=宋体;fontSize=25;" parent="iQX4BAwCXbjmUn3e2jPd-1" source="TLsCk818xWG-sSCKFWpw-0" target="h2HOim202EjieUB3Oczs-3" edge="1">
          <mxGeometry relative="1" as="geometry" />
        </mxCell>
        <mxCell id="TLsCk818xWG-sSCKFWpw-0" value="&lt;span style=&quot;background-color: transparent;&quot;&gt;&lt;font&gt;判断&lt;/font&gt;&lt;/span&gt;&lt;span style=&quot;background-color: transparent;&quot;&gt;是否&lt;/span&gt;&lt;div&gt;&lt;span style=&quot;background-color: transparent;&quot;&gt;填写密码&lt;/span&gt;&lt;span style=&quot;background-color: transparent;&quot;&gt;？&lt;/span&gt;&lt;/div&gt;" style="shape=mxgraph.flowchart.decision;strokeWidth=1;gradientColor=none;gradientDirection=north;fontStyle=0;html=1;fontFamily=宋体;fontSize=25;" parent="iQX4BAwCXbjmUn3e2jPd-1" vertex="1">
          <mxGeometry x="153.5" y="387.5" width="334.5" height="80" as="geometry" />
        </mxCell>
        <mxCell id="U_BGzayedf9yNHDhHmPG-0" value="&lt;font&gt;是&lt;/font&gt;" style="text;fontStyle=0;html=1;strokeColor=none;gradientColor=none;fillColor=none;strokeWidth=1;fontFamily=宋体;fontSize=25;" parent="iQX4BAwCXbjmUn3e2jPd-1" vertex="1">
          <mxGeometry x="321" y="348" width="40" height="26" as="geometry" />
        </mxCell>
        <mxCell id="h2HOim202EjieUB3Oczs-0" value="&lt;font&gt;自动设置默认密码&lt;/font&gt;" style="rounded=0;whiteSpace=wrap;html=1;strokeColor=default;align=center;verticalAlign=middle;fontFamily=宋体;fontSize=25;fontColor=default;fillColor=default;strokeWidth=1;" parent="iQX4BAwCXbjmUn3e2jPd-1" vertex="1">
          <mxGeometry x="453" y="502" width="120" height="60" as="geometry" />
        </mxCell>
        <mxCell id="h2HOim202EjieUB3Oczs-2" style="edgeStyle=orthogonalEdgeStyle;rounded=0;orthogonalLoop=1;jettySize=auto;html=1;exitX=0.5;exitY=1;exitDx=0;exitDy=0;strokeWidth=1;fontFamily=宋体;fontSize=25;" parent="iQX4BAwCXbjmUn3e2jPd-1" source="h2HOim202EjieUB3Oczs-0" edge="1">
          <mxGeometry relative="1" as="geometry">
            <mxPoint x="321" y="574" as="targetPoint" />
            <Array as="points">
              <mxPoint x="513" y="574" />
            </Array>
          </mxGeometry>
        </mxCell>
        <mxCell id="h2HOim202EjieUB3Oczs-5" value="" style="edgeStyle=orthogonalEdgeStyle;rounded=0;orthogonalLoop=1;jettySize=auto;html=1;entryX=0.5;entryY=0;entryDx=0;entryDy=0;strokeWidth=1;fontFamily=宋体;fontSize=25;" parent="iQX4BAwCXbjmUn3e2jPd-1" source="h2HOim202EjieUB3Oczs-3" target="h2HOim202EjieUB3Oczs-6" edge="1">
          <mxGeometry relative="1" as="geometry" />
        </mxCell>
        <mxCell id="h2HOim202EjieUB3Oczs-3" value="&lt;font&gt;设置指定密码&lt;/font&gt;" style="rounded=0;whiteSpace=wrap;html=1;strokeColor=default;align=center;verticalAlign=middle;fontFamily=宋体;fontSize=25;fontColor=default;fillColor=default;strokeWidth=1;" parent="iQX4BAwCXbjmUn3e2jPd-1" vertex="1">
          <mxGeometry x="260.75" y="502" width="120" height="60" as="geometry" />
        </mxCell>
        <mxCell id="h2HOim202EjieUB3Oczs-7" value="" style="edgeStyle=orthogonalEdgeStyle;rounded=0;orthogonalLoop=1;jettySize=auto;html=1;strokeWidth=1;fontFamily=宋体;fontSize=25;" parent="iQX4BAwCXbjmUn3e2jPd-1" source="h2HOim202EjieUB3Oczs-6" target="iQX4BAwCXbjmUn3e2jPd-11" edge="1">
          <mxGeometry relative="1" as="geometry" />
        </mxCell>
        <mxCell id="h2HOim202EjieUB3Oczs-6" value="&lt;font&gt;新增用户成功，&lt;/font&gt;&lt;div&gt;&lt;font&gt;刷新用户信息列表&lt;/font&gt;&lt;/div&gt;" style="rounded=0;whiteSpace=wrap;html=1;strokeColor=default;align=center;verticalAlign=middle;fontFamily=宋体;fontSize=25;fontColor=default;fillColor=default;strokeWidth=1;" parent="iQX4BAwCXbjmUn3e2jPd-1" vertex="1">
          <mxGeometry x="205.87" y="599" width="228.25" height="95" as="geometry" />
        </mxCell>
        <mxCell id="DFHlnPZh2PBKwwNBP4AO-1" value="&lt;font&gt;否&lt;/font&gt;" style="text;fontStyle=0;html=1;strokeColor=none;gradientColor=none;fillColor=none;strokeWidth=1;fontFamily=宋体;fontSize=25;" parent="iQX4BAwCXbjmUn3e2jPd-1" vertex="1">
          <mxGeometry x="524" y="265" width="40" height="26" as="geometry" />
        </mxCell>
        <mxCell id="kvsAGqoDCfKjpXBL4ux7-0" value="&lt;font&gt;否&lt;/font&gt;" style="text;fontStyle=0;html=1;strokeColor=none;gradientColor=none;fillColor=none;strokeWidth=1;fontFamily=宋体;fontSize=25;" parent="iQX4BAwCXbjmUn3e2jPd-1" vertex="1">
          <mxGeometry x="479" y="392" width="40" height="26" as="geometry" />
        </mxCell>
        <mxCell id="kvsAGqoDCfKjpXBL4ux7-1" value="&lt;font&gt;是&lt;/font&gt;" style="text;fontStyle=0;html=1;strokeColor=none;gradientColor=none;fillColor=none;strokeWidth=1;fontFamily=宋体;fontSize=25;" parent="iQX4BAwCXbjmUn3e2jPd-1" vertex="1">
          <mxGeometry x="329" y="467.5" width="40" height="26" as="geometry" />
        </mxCell>
        <mxCell id="3BAZZO1Yn0zYDWdrDDDq-0" style="edgeStyle=orthogonalEdgeStyle;rounded=0;orthogonalLoop=1;jettySize=auto;html=1;entryX=0.5;entryY=0;entryDx=0;entryDy=0;exitX=1;exitY=0.5;exitDx=0;exitDy=0;exitPerimeter=0;" edge="1" parent="iQX4BAwCXbjmUn3e2jPd-1" source="TLsCk818xWG-sSCKFWpw-0" target="h2HOim202EjieUB3Oczs-0">
          <mxGeometry relative="1" as="geometry">
            <Array as="points">
              <mxPoint x="513" y="428" />
            </Array>
          </mxGeometry>
        </mxCell>
        <mxCell id="3BAZZO1Yn0zYDWdrDDDq-3" value="" style="edgeStyle=orthogonalEdgeStyle;rounded=0;orthogonalLoop=1;jettySize=auto;html=1;" edge="1" parent="iQX4BAwCXbjmUn3e2jPd-1" source="3BAZZO1Yn0zYDWdrDDDq-1" target="iQX4BAwCXbjmUn3e2jPd-4">
          <mxGeometry relative="1" as="geometry" />
        </mxCell>
        <mxCell id="3BAZZO1Yn0zYDWdrDDDq-1" value="点击新增用户按钮" style="shape=parallelogram;perimeter=parallelogramPerimeter;whiteSpace=wrap;html=1;fixedSize=1;size=30.999989827474053;strokeWidth=1;fontFamily=宋体;fontSize=25;" vertex="1" parent="iQX4BAwCXbjmUn3e2jPd-1">
          <mxGeometry x="183.24" y="44" width="273.5" height="53" as="geometry" />
        </mxCell>
      </root>
    </mxGraphModel>
  </diagram>
  <diagram name="查询用户信息" id="zO5lMgldCZhvQaBWDhTm">
    <mxGraphModel dx="1042" dy="571" grid="0" gridSize="10" guides="1" tooltips="1" connect="1" arrows="1" fold="1" page="1" pageScale="1" pageWidth="1169" pageHeight="827" background="none" math="0" shadow="0">
      <root>
        <mxCell id="a178zMsoAZZl_uSFc6zt-0" />
        <mxCell id="a178zMsoAZZl_uSFc6zt-1" parent="a178zMsoAZZl_uSFc6zt-0" />
        <mxCell id="a178zMsoAZZl_uSFc6zt-2" value="&lt;font&gt;开始&lt;/font&gt;" style="shape=mxgraph.flowchart.terminator;strokeWidth=1;gradientColor=none;gradientDirection=north;fontStyle=0;html=1;fontFamily=宋体;fontSize=25;" parent="a178zMsoAZZl_uSFc6zt-1" vertex="1">
          <mxGeometry x="260" y="60" width="120" height="30" as="geometry" />
        </mxCell>
        <mxCell id="4zAfmRgb_v9YsMz6_RCy-1" value="" style="edgeStyle=orthogonalEdgeStyle;rounded=0;orthogonalLoop=1;jettySize=auto;html=1;strokeWidth=1;fontFamily=宋体;fontSize=25;" parent="a178zMsoAZZl_uSFc6zt-1" source="a178zMsoAZZl_uSFc6zt-4" target="4zAfmRgb_v9YsMz6_RCy-0" edge="1">
          <mxGeometry relative="1" as="geometry" />
        </mxCell>
        <mxCell id="a178zMsoAZZl_uSFc6zt-4" value="&lt;font&gt;构建查询条件&lt;/font&gt;" style="shape=parallelogram;perimeter=parallelogramPerimeter;whiteSpace=wrap;html=1;fixedSize=1;size=30.999989827474053;strokeWidth=1;fontFamily=宋体;fontSize=25;" parent="a178zMsoAZZl_uSFc6zt-1" vertex="1">
          <mxGeometry x="228.5" y="131" width="181.5" height="80" as="geometry" />
        </mxCell>
        <mxCell id="a178zMsoAZZl_uSFc6zt-5" style="fontStyle=1;strokeColor=#003366;strokeWidth=1;html=1;fontFamily=宋体;fontSize=25;" parent="a178zMsoAZZl_uSFc6zt-1" source="a178zMsoAZZl_uSFc6zt-2" target="a178zMsoAZZl_uSFc6zt-4" edge="1">
          <mxGeometry relative="1" as="geometry" />
        </mxCell>
        <mxCell id="a178zMsoAZZl_uSFc6zt-7" style="edgeStyle=orthogonalEdgeStyle;rounded=0;orthogonalLoop=1;jettySize=auto;html=1;entryX=0.5;entryY=0;entryDx=0;entryDy=0;strokeWidth=1;fontFamily=宋体;fontSize=25;" parent="a178zMsoAZZl_uSFc6zt-1" source="a178zMsoAZZl_uSFc6zt-8" target="a178zMsoAZZl_uSFc6zt-20" edge="1">
          <mxGeometry relative="1" as="geometry">
            <mxPoint x="319.25" y="504" as="targetPoint" />
          </mxGeometry>
        </mxCell>
        <mxCell id="a178zMsoAZZl_uSFc6zt-8" value="&lt;font&gt;是否选择用户？&lt;/font&gt;" style="shape=mxgraph.flowchart.decision;strokeWidth=1;gradientColor=none;gradientDirection=north;fontStyle=0;html=1;fontFamily=宋体;fontSize=25;" parent="a178zMsoAZZl_uSFc6zt-1" vertex="1">
          <mxGeometry x="212" y="355" width="216" height="80" as="geometry" />
        </mxCell>
        <mxCell id="a178zMsoAZZl_uSFc6zt-9" value="&lt;font&gt;结束&lt;/font&gt;" style="shape=mxgraph.flowchart.terminator;strokeWidth=1;gradientColor=none;gradientDirection=north;fontStyle=0;html=1;fontFamily=宋体;fontSize=25;" parent="a178zMsoAZZl_uSFc6zt-1" vertex="1">
          <mxGeometry x="260" y="599" width="120" height="30" as="geometry" />
        </mxCell>
        <mxCell id="a178zMsoAZZl_uSFc6zt-13" style="edgeStyle=orthogonalEdgeStyle;rounded=0;orthogonalLoop=1;jettySize=auto;html=1;exitX=1;exitY=0.5;exitDx=0;exitDy=0;exitPerimeter=0;strokeWidth=1;fontFamily=宋体;fontSize=25;" parent="a178zMsoAZZl_uSFc6zt-1" source="a178zMsoAZZl_uSFc6zt-8" edge="1">
          <mxGeometry relative="1" as="geometry">
            <mxPoint x="398" y="544" as="sourcePoint" />
            <mxPoint x="319" y="583" as="targetPoint" />
            <Array as="points">
              <mxPoint x="438" y="393" />
              <mxPoint x="438" y="583" />
            </Array>
          </mxGeometry>
        </mxCell>
        <mxCell id="a178zMsoAZZl_uSFc6zt-16" value="&lt;font&gt;是&lt;/font&gt;" style="text;fontStyle=0;html=1;strokeColor=none;gradientColor=none;fillColor=none;strokeWidth=1;fontFamily=宋体;fontSize=25;" parent="a178zMsoAZZl_uSFc6zt-1" vertex="1">
          <mxGeometry x="321" y="446" width="40" height="26" as="geometry" />
        </mxCell>
        <mxCell id="4zAfmRgb_v9YsMz6_RCy-3" value="" style="edgeStyle=orthogonalEdgeStyle;rounded=0;orthogonalLoop=1;jettySize=auto;html=1;strokeWidth=1;fontFamily=宋体;fontSize=25;" parent="a178zMsoAZZl_uSFc6zt-1" source="a178zMsoAZZl_uSFc6zt-20" target="a178zMsoAZZl_uSFc6zt-9" edge="1">
          <mxGeometry relative="1" as="geometry" />
        </mxCell>
        <mxCell id="a178zMsoAZZl_uSFc6zt-20" value="&lt;font&gt;查看用户信息&lt;/font&gt;" style="rounded=0;whiteSpace=wrap;html=1;strokeColor=default;align=center;verticalAlign=middle;fontFamily=宋体;fontSize=25;fontColor=default;fillColor=default;strokeWidth=1;" parent="a178zMsoAZZl_uSFc6zt-1" vertex="1">
          <mxGeometry x="259.25" y="492" width="120" height="60" as="geometry" />
        </mxCell>
        <mxCell id="a178zMsoAZZl_uSFc6zt-24" value="&lt;font&gt;否&lt;/font&gt;" style="text;fontStyle=0;html=1;strokeColor=none;gradientColor=none;fillColor=none;strokeWidth=1;fontFamily=宋体;fontSize=25;" parent="a178zMsoAZZl_uSFc6zt-1" vertex="1">
          <mxGeometry x="445" y="426" width="40" height="26" as="geometry" />
        </mxCell>
        <mxCell id="4zAfmRgb_v9YsMz6_RCy-2" value="" style="edgeStyle=orthogonalEdgeStyle;rounded=0;orthogonalLoop=1;jettySize=auto;html=1;strokeWidth=1;fontFamily=宋体;fontSize=25;" parent="a178zMsoAZZl_uSFc6zt-1" source="4zAfmRgb_v9YsMz6_RCy-0" target="a178zMsoAZZl_uSFc6zt-8" edge="1">
          <mxGeometry relative="1" as="geometry" />
        </mxCell>
        <mxCell id="4zAfmRgb_v9YsMz6_RCy-0" value="&lt;font&gt;刷新用户信息列表&lt;/font&gt;" style="rounded=0;whiteSpace=wrap;html=1;strokeWidth=1;fontFamily=宋体;fontSize=25;strokeColor=default;align=center;verticalAlign=middle;fontColor=default;fillColor=default;" parent="a178zMsoAZZl_uSFc6zt-1" vertex="1">
          <mxGeometry x="260" y="247" width="120" height="60" as="geometry" />
        </mxCell>
      </root>
    </mxGraphModel>
  </diagram>
  <diagram name="新增班级" id="UwPQcRQ1GoNHj64xGsWo">
    <mxGraphModel dx="1042" dy="571" grid="0" gridSize="10" guides="1" tooltips="1" connect="1" arrows="1" fold="1" page="1" pageScale="1" pageWidth="1169" pageHeight="827" background="none" math="0" shadow="0">
      <root>
        <mxCell id="UBPl67I2Rxnn2enCOQGa-0" />
        <mxCell id="UBPl67I2Rxnn2enCOQGa-1" parent="UBPl67I2Rxnn2enCOQGa-0" />
        <mxCell id="UBPl67I2Rxnn2enCOQGa-2" value="&lt;font&gt;开始&lt;/font&gt;" style="shape=mxgraph.flowchart.terminator;strokeWidth=1;gradientColor=none;gradientDirection=north;fontStyle=0;html=1;fontFamily=宋体;fontSize=20;" parent="UBPl67I2Rxnn2enCOQGa-1" vertex="1">
          <mxGeometry x="260" y="60" width="120" height="30" as="geometry" />
        </mxCell>
        <mxCell id="UBPl67I2Rxnn2enCOQGa-3" value="" style="edgeStyle=orthogonalEdgeStyle;rounded=0;orthogonalLoop=1;jettySize=auto;html=1;fontFamily=宋体;fontSize=20;strokeWidth=1;" parent="UBPl67I2Rxnn2enCOQGa-1" source="UBPl67I2Rxnn2enCOQGa-4" target="UBPl67I2Rxnn2enCOQGa-10" edge="1">
          <mxGeometry relative="1" as="geometry" />
        </mxCell>
        <mxCell id="UBPl67I2Rxnn2enCOQGa-4" value="&lt;font&gt;选择学院、专业、年级&lt;/font&gt;" style="shape=parallelogram;perimeter=parallelogramPerimeter;whiteSpace=wrap;html=1;fixedSize=1;size=30.999989827474053;fontFamily=宋体;fontSize=20;strokeWidth=1;" parent="UBPl67I2Rxnn2enCOQGa-1" vertex="1">
          <mxGeometry x="157.75" y="128" width="324.5" height="80" as="geometry" />
        </mxCell>
        <mxCell id="UBPl67I2Rxnn2enCOQGa-5" style="fontStyle=1;strokeColor=#003366;strokeWidth=1;html=1;fontFamily=宋体;fontSize=20;" parent="UBPl67I2Rxnn2enCOQGa-1" source="UBPl67I2Rxnn2enCOQGa-2" target="UBPl67I2Rxnn2enCOQGa-4" edge="1">
          <mxGeometry relative="1" as="geometry" />
        </mxCell>
        <mxCell id="UBPl67I2Rxnn2enCOQGa-6" value="&lt;font&gt;结束&lt;/font&gt;" style="shape=mxgraph.flowchart.terminator;strokeWidth=1;gradientColor=none;gradientDirection=north;fontStyle=0;html=1;fontFamily=宋体;fontSize=20;" parent="UBPl67I2Rxnn2enCOQGa-1" vertex="1">
          <mxGeometry x="260" y="463" width="120" height="30" as="geometry" />
        </mxCell>
        <mxCell id="UBPl67I2Rxnn2enCOQGa-7" value="" style="edgeStyle=orthogonalEdgeStyle;rounded=0;orthogonalLoop=1;jettySize=auto;html=1;fontFamily=宋体;fontSize=20;strokeWidth=1;" parent="UBPl67I2Rxnn2enCOQGa-1" source="UBPl67I2Rxnn2enCOQGa-8" target="UBPl67I2Rxnn2enCOQGa-6" edge="1">
          <mxGeometry relative="1" as="geometry" />
        </mxCell>
        <mxCell id="UBPl67I2Rxnn2enCOQGa-8" value="&lt;font&gt;新增班级成功，&lt;/font&gt;&lt;div&gt;&lt;font&gt;刷新班级信息列表&lt;/font&gt;&lt;/div&gt;" style="rounded=0;whiteSpace=wrap;html=1;strokeColor=default;align=center;verticalAlign=middle;fontFamily=宋体;fontSize=20;fontColor=default;fillColor=default;strokeWidth=1;" parent="UBPl67I2Rxnn2enCOQGa-1" vertex="1">
          <mxGeometry x="231.5" y="352" width="177" height="87" as="geometry" />
        </mxCell>
        <mxCell id="UBPl67I2Rxnn2enCOQGa-9" value="" style="edgeStyle=orthogonalEdgeStyle;rounded=0;orthogonalLoop=1;jettySize=auto;html=1;fontFamily=宋体;fontSize=20;strokeWidth=1;" parent="UBPl67I2Rxnn2enCOQGa-1" source="UBPl67I2Rxnn2enCOQGa-10" target="UBPl67I2Rxnn2enCOQGa-8" edge="1">
          <mxGeometry relative="1" as="geometry" />
        </mxCell>
        <mxCell id="UBPl67I2Rxnn2enCOQGa-10" value="&lt;font&gt;填写班级名称&lt;/font&gt;" style="shape=parallelogram;perimeter=parallelogramPerimeter;whiteSpace=wrap;html=1;fixedSize=1;size=30.999989827474053;fontFamily=宋体;fontSize=20;strokeWidth=1;" parent="UBPl67I2Rxnn2enCOQGa-1" vertex="1">
          <mxGeometry x="236.75" y="247" width="166.5" height="80" as="geometry" />
        </mxCell>
      </root>
    </mxGraphModel>
  </diagram>
  <diagram name="新增专业" id="g9HEX39XAxbrUlT0GuCL">
    <mxGraphModel dx="1042" dy="571" grid="0" gridSize="10" guides="1" tooltips="1" connect="1" arrows="1" fold="1" page="1" pageScale="1" pageWidth="1169" pageHeight="827" background="none" math="0" shadow="0">
      <root>
        <mxCell id="rDDQka-0u5jvCdBOb04Q-0" />
        <mxCell id="rDDQka-0u5jvCdBOb04Q-1" parent="rDDQka-0u5jvCdBOb04Q-0" />
        <mxCell id="rDDQka-0u5jvCdBOb04Q-2" value="&lt;font&gt;开始&lt;/font&gt;" style="shape=mxgraph.flowchart.terminator;strokeWidth=1;gradientColor=none;gradientDirection=north;fontStyle=0;html=1;fontFamily=宋体;fontSize=20;" parent="rDDQka-0u5jvCdBOb04Q-1" vertex="1">
          <mxGeometry x="260" y="60" width="120" height="30" as="geometry" />
        </mxCell>
        <mxCell id="ih58ZosRP1LRNqlnaSR5-2" value="" style="edgeStyle=orthogonalEdgeStyle;rounded=0;orthogonalLoop=1;jettySize=auto;html=1;fontFamily=宋体;fontSize=20;strokeWidth=1;" parent="rDDQka-0u5jvCdBOb04Q-1" source="rDDQka-0u5jvCdBOb04Q-4" target="ih58ZosRP1LRNqlnaSR5-1" edge="1">
          <mxGeometry relative="1" as="geometry" />
        </mxCell>
        <mxCell id="rDDQka-0u5jvCdBOb04Q-4" value="&lt;font&gt;选择学院&lt;/font&gt;" style="shape=parallelogram;perimeter=parallelogramPerimeter;whiteSpace=wrap;html=1;fixedSize=1;size=30.999989827474053;fontFamily=宋体;fontSize=20;strokeWidth=1;" parent="rDDQka-0u5jvCdBOb04Q-1" vertex="1">
          <mxGeometry x="240.5" y="130" width="159" height="80" as="geometry" />
        </mxCell>
        <mxCell id="rDDQka-0u5jvCdBOb04Q-5" style="fontStyle=1;strokeColor=#003366;strokeWidth=1;html=1;fontFamily=宋体;fontSize=20;" parent="rDDQka-0u5jvCdBOb04Q-1" source="rDDQka-0u5jvCdBOb04Q-2" target="rDDQka-0u5jvCdBOb04Q-4" edge="1">
          <mxGeometry relative="1" as="geometry" />
        </mxCell>
        <mxCell id="rDDQka-0u5jvCdBOb04Q-9" value="&lt;font&gt;结束&lt;/font&gt;" style="shape=mxgraph.flowchart.terminator;strokeWidth=1;gradientColor=none;gradientDirection=north;fontStyle=0;html=1;fontFamily=宋体;fontSize=20;" parent="rDDQka-0u5jvCdBOb04Q-1" vertex="1">
          <mxGeometry x="260" y="463" width="120" height="30" as="geometry" />
        </mxCell>
        <mxCell id="rDDQka-0u5jvCdBOb04Q-21" value="" style="edgeStyle=orthogonalEdgeStyle;rounded=0;orthogonalLoop=1;jettySize=auto;html=1;fontFamily=宋体;fontSize=20;strokeWidth=1;" parent="rDDQka-0u5jvCdBOb04Q-1" source="rDDQka-0u5jvCdBOb04Q-22" target="rDDQka-0u5jvCdBOb04Q-9" edge="1">
          <mxGeometry relative="1" as="geometry" />
        </mxCell>
        <mxCell id="rDDQka-0u5jvCdBOb04Q-22" value="&lt;font&gt;新增专业成功，&lt;/font&gt;&lt;div&gt;&lt;font&gt;刷新专业信息列表&lt;/font&gt;&lt;/div&gt;" style="rounded=0;whiteSpace=wrap;html=1;strokeColor=default;align=center;verticalAlign=middle;fontFamily=宋体;fontSize=20;fontColor=default;fillColor=default;strokeWidth=1;" parent="rDDQka-0u5jvCdBOb04Q-1" vertex="1">
          <mxGeometry x="229" y="368" width="182" height="60" as="geometry" />
        </mxCell>
        <mxCell id="ih58ZosRP1LRNqlnaSR5-3" value="" style="edgeStyle=orthogonalEdgeStyle;rounded=0;orthogonalLoop=1;jettySize=auto;html=1;fontFamily=宋体;fontSize=20;strokeWidth=1;" parent="rDDQka-0u5jvCdBOb04Q-1" source="ih58ZosRP1LRNqlnaSR5-1" target="rDDQka-0u5jvCdBOb04Q-22" edge="1">
          <mxGeometry relative="1" as="geometry" />
        </mxCell>
        <mxCell id="ih58ZosRP1LRNqlnaSR5-1" value="&lt;font&gt;填写专业名称&lt;/font&gt;" style="shape=parallelogram;perimeter=parallelogramPerimeter;whiteSpace=wrap;html=1;fixedSize=1;size=30.999989827474053;fontFamily=宋体;fontSize=20;strokeWidth=1;" parent="rDDQka-0u5jvCdBOb04Q-1" vertex="1">
          <mxGeometry x="225.25" y="244" width="189.5" height="80" as="geometry" />
        </mxCell>
      </root>
    </mxGraphModel>
  </diagram>
  <diagram name="活动信息申请" id="5E_GrsBGs8bj_fa3R2qS">
    <mxGraphModel dx="1226" dy="1499" grid="0" gridSize="10" guides="1" tooltips="1" connect="1" arrows="1" fold="1" page="1" pageScale="1" pageWidth="1169" pageHeight="827" background="none" math="0" shadow="0">
      <root>
        <mxCell id="r6tASK6qIJMkliBi02eM-0" />
        <mxCell id="r6tASK6qIJMkliBi02eM-1" parent="r6tASK6qIJMkliBi02eM-0" />
        <mxCell id="SzBSohtCyqU1575bZQyp-1" value="" style="edgeStyle=orthogonalEdgeStyle;rounded=0;orthogonalLoop=1;jettySize=auto;html=1;" edge="1" parent="r6tASK6qIJMkliBi02eM-1" source="r6tASK6qIJMkliBi02eM-2" target="SzBSohtCyqU1575bZQyp-0">
          <mxGeometry relative="1" as="geometry" />
        </mxCell>
        <mxCell id="r6tASK6qIJMkliBi02eM-2" value="&lt;font&gt;开始&lt;/font&gt;" style="shape=mxgraph.flowchart.terminator;strokeWidth=1;gradientColor=none;gradientDirection=north;fontStyle=0;html=1;fontFamily=宋体;fontSize=25;" parent="r6tASK6qIJMkliBi02eM-1" vertex="1">
          <mxGeometry x="260.75" y="-3" width="120" height="30" as="geometry" />
        </mxCell>
        <mxCell id="r6tASK6qIJMkliBi02eM-3" style="edgeStyle=orthogonalEdgeStyle;rounded=0;orthogonalLoop=1;jettySize=auto;html=1;fontFamily=宋体;fontSize=25;strokeWidth=1;" parent="r6tASK6qIJMkliBi02eM-1" source="r6tASK6qIJMkliBi02eM-4" target="r6tASK6qIJMkliBi02eM-8" edge="1">
          <mxGeometry relative="1" as="geometry" />
        </mxCell>
        <mxCell id="r6tASK6qIJMkliBi02eM-4" value="&lt;font&gt;填写要申请的&lt;/font&gt;&lt;div&gt;&lt;font&gt;活动信息表单&lt;/font&gt;&lt;/div&gt;" style="shape=parallelogram;perimeter=parallelogramPerimeter;whiteSpace=wrap;html=1;fixedSize=1;size=30.999989827474053;fontFamily=宋体;fontSize=25;strokeWidth=1;" parent="r6tASK6qIJMkliBi02eM-1" vertex="1">
          <mxGeometry x="223.25" y="130" width="195" height="80" as="geometry" />
        </mxCell>
        <mxCell id="r6tASK6qIJMkliBi02eM-6" style="edgeStyle=orthogonalEdgeStyle;rounded=0;orthogonalLoop=1;jettySize=auto;html=1;exitX=1;exitY=0.5;exitDx=0;exitDy=0;exitPerimeter=0;fontFamily=宋体;fontSize=25;strokeWidth=1;entryX=1;entryY=0.5;entryDx=0;entryDy=0;" parent="r6tASK6qIJMkliBi02eM-1" source="r6tASK6qIJMkliBi02eM-8" target="r6tASK6qIJMkliBi02eM-4" edge="1">
          <mxGeometry relative="1" as="geometry">
            <mxPoint x="524" y="217" as="targetPoint" />
            <Array as="points">
              <mxPoint x="558" y="303" />
              <mxPoint x="558" y="170" />
            </Array>
          </mxGeometry>
        </mxCell>
        <mxCell id="r6tASK6qIJMkliBi02eM-7" style="edgeStyle=orthogonalEdgeStyle;rounded=0;orthogonalLoop=1;jettySize=auto;html=1;fontFamily=宋体;fontSize=25;strokeWidth=1;" parent="r6tASK6qIJMkliBi02eM-1" source="r6tASK6qIJMkliBi02eM-8" target="r6tASK6qIJMkliBi02eM-20" edge="1">
          <mxGeometry relative="1" as="geometry">
            <mxPoint x="320.75" y="386" as="targetPoint" />
          </mxGeometry>
        </mxCell>
        <mxCell id="r6tASK6qIJMkliBi02eM-8" value="&lt;span style=&quot;background-color: transparent;&quot;&gt;&lt;font&gt;判断表单信息&lt;/font&gt;&lt;/span&gt;&lt;div&gt;&lt;span style=&quot;background-color: transparent;&quot;&gt;&lt;font&gt;格式&lt;/font&gt;&lt;/span&gt;&lt;span style=&quot;background-color: transparent;&quot;&gt;是否正确？&lt;/span&gt;&lt;/div&gt;" style="shape=mxgraph.flowchart.decision;strokeWidth=1;gradientColor=none;gradientDirection=north;fontStyle=0;html=1;fontFamily=宋体;fontSize=25;" parent="r6tASK6qIJMkliBi02eM-1" vertex="1">
          <mxGeometry x="135.75" y="258" width="368.5" height="90" as="geometry" />
        </mxCell>
        <mxCell id="r6tASK6qIJMkliBi02eM-9" value="&lt;font&gt;结束&lt;/font&gt;" style="shape=mxgraph.flowchart.terminator;strokeWidth=1;gradientColor=none;gradientDirection=north;fontStyle=0;html=1;fontFamily=宋体;fontSize=25;" parent="r6tASK6qIJMkliBi02eM-1" vertex="1">
          <mxGeometry x="260.75" y="590" width="120" height="30" as="geometry" />
        </mxCell>
        <mxCell id="r6tASK6qIJMkliBi02eM-16" value="&lt;font&gt;是&lt;/font&gt;" style="text;fontStyle=0;html=1;strokeColor=none;gradientColor=none;fillColor=none;strokeWidth=1;fontFamily=宋体;fontSize=25;" parent="r6tASK6qIJMkliBi02eM-1" vertex="1">
          <mxGeometry x="321" y="348" width="40" height="26" as="geometry" />
        </mxCell>
        <mxCell id="r6tASK6qIJMkliBi02eM-19" value="" style="edgeStyle=orthogonalEdgeStyle;rounded=0;orthogonalLoop=1;jettySize=auto;html=1;entryX=0.5;entryY=0;entryDx=0;entryDy=0;fontFamily=宋体;fontSize=25;strokeWidth=1;" parent="r6tASK6qIJMkliBi02eM-1" source="r6tASK6qIJMkliBi02eM-20" target="r6tASK6qIJMkliBi02eM-22" edge="1">
          <mxGeometry relative="1" as="geometry" />
        </mxCell>
        <mxCell id="r6tASK6qIJMkliBi02eM-20" value="&lt;font&gt;设置&lt;/font&gt;&lt;div&gt;&lt;font&gt;状态为未审核&lt;/font&gt;&lt;/div&gt;" style="rounded=0;whiteSpace=wrap;html=1;strokeColor=default;align=center;verticalAlign=middle;fontFamily=宋体;fontSize=25;fontColor=default;fillColor=default;strokeWidth=1;" parent="r6tASK6qIJMkliBi02eM-1" vertex="1">
          <mxGeometry x="242.37" y="386" width="156.75" height="80" as="geometry" />
        </mxCell>
        <mxCell id="r6tASK6qIJMkliBi02eM-21" value="" style="edgeStyle=orthogonalEdgeStyle;rounded=0;orthogonalLoop=1;jettySize=auto;html=1;fontFamily=宋体;fontSize=25;strokeWidth=1;" parent="r6tASK6qIJMkliBi02eM-1" source="r6tASK6qIJMkliBi02eM-22" target="r6tASK6qIJMkliBi02eM-9" edge="1">
          <mxGeometry relative="1" as="geometry" />
        </mxCell>
        <mxCell id="r6tASK6qIJMkliBi02eM-22" value="&lt;font&gt;新增活动信息，&lt;/font&gt;&lt;div&gt;&lt;font&gt;刷新活动信息列表&lt;/font&gt;&lt;/div&gt;" style="rounded=0;whiteSpace=wrap;html=1;strokeColor=default;align=center;verticalAlign=middle;fontFamily=宋体;fontSize=25;fontColor=default;fillColor=default;strokeWidth=1;" parent="r6tASK6qIJMkliBi02eM-1" vertex="1">
          <mxGeometry x="217.37" y="493" width="206.75" height="77" as="geometry" />
        </mxCell>
        <mxCell id="Q_9ScVZxwR28YSPYEdUj-1" value="&lt;font&gt;否&lt;/font&gt;" style="text;html=1;align=center;verticalAlign=middle;resizable=0;points=[];autosize=1;strokeColor=none;fillColor=none;fontFamily=宋体;fontSize=25;strokeWidth=1;" parent="r6tASK6qIJMkliBi02eM-1" vertex="1">
          <mxGeometry x="510" y="266" width="43" height="42" as="geometry" />
        </mxCell>
        <mxCell id="SzBSohtCyqU1575bZQyp-2" value="" style="edgeStyle=orthogonalEdgeStyle;rounded=0;orthogonalLoop=1;jettySize=auto;html=1;" edge="1" parent="r6tASK6qIJMkliBi02eM-1" source="SzBSohtCyqU1575bZQyp-0" target="r6tASK6qIJMkliBi02eM-4">
          <mxGeometry relative="1" as="geometry" />
        </mxCell>
        <mxCell id="SzBSohtCyqU1575bZQyp-0" value="点击申请活动按钮" style="shape=parallelogram;perimeter=parallelogramPerimeter;whiteSpace=wrap;html=1;fixedSize=1;size=30.999989827474053;fontFamily=宋体;fontSize=25;strokeWidth=1;" vertex="1" parent="r6tASK6qIJMkliBi02eM-1">
          <mxGeometry x="194.25" y="51" width="253" height="55" as="geometry" />
        </mxCell>
      </root>
    </mxGraphModel>
  </diagram>
  <diagram name="审核社团活动" id="1vJyK-X-kyka1zdjFozQ">
    <mxGraphModel dx="1042" dy="571" grid="0" gridSize="10" guides="1" tooltips="1" connect="1" arrows="1" fold="1" page="1" pageScale="1" pageWidth="1169" pageHeight="827" background="none" math="0" shadow="0">
      <root>
        <mxCell id="h1xKM3DgahZiNv9cewnH-0" />
        <mxCell id="h1xKM3DgahZiNv9cewnH-1" parent="h1xKM3DgahZiNv9cewnH-0" />
        <mxCell id="h1xKM3DgahZiNv9cewnH-2" value="&lt;font&gt;开始&lt;/font&gt;" style="shape=mxgraph.flowchart.terminator;strokeWidth=1;gradientColor=none;gradientDirection=north;fontStyle=0;html=1;fontFamily=宋体;fontSize=25;" parent="h1xKM3DgahZiNv9cewnH-1" vertex="1">
          <mxGeometry x="263.24" y="116" width="120" height="30" as="geometry" />
        </mxCell>
        <mxCell id="h1xKM3DgahZiNv9cewnH-3" value="" style="edgeStyle=orthogonalEdgeStyle;rounded=0;orthogonalLoop=1;jettySize=auto;html=1;strokeWidth=1;fontFamily=宋体;fontSize=25;" parent="h1xKM3DgahZiNv9cewnH-1" source="h1xKM3DgahZiNv9cewnH-4" target="h1xKM3DgahZiNv9cewnH-10" edge="1">
          <mxGeometry relative="1" as="geometry" />
        </mxCell>
        <mxCell id="h1xKM3DgahZiNv9cewnH-4" value="&lt;font&gt;点击审核按钮&lt;/font&gt;" style="shape=parallelogram;perimeter=parallelogramPerimeter;whiteSpace=wrap;html=1;fixedSize=1;size=30.999989827474053;strokeWidth=1;fontFamily=宋体;fontSize=25;" parent="h1xKM3DgahZiNv9cewnH-1" vertex="1">
          <mxGeometry x="192" y="193" width="262.5" height="46" as="geometry" />
        </mxCell>
        <mxCell id="h1xKM3DgahZiNv9cewnH-5" style="fontStyle=1;strokeColor=#003366;strokeWidth=1;html=1;fontFamily=宋体;fontSize=25;" parent="h1xKM3DgahZiNv9cewnH-1" source="h1xKM3DgahZiNv9cewnH-2" target="h1xKM3DgahZiNv9cewnH-4" edge="1">
          <mxGeometry relative="1" as="geometry" />
        </mxCell>
        <mxCell id="h1xKM3DgahZiNv9cewnH-6" value="&lt;font&gt;结束&lt;/font&gt;" style="shape=mxgraph.flowchart.terminator;strokeWidth=1;gradientColor=none;gradientDirection=north;fontStyle=0;html=1;fontFamily=宋体;fontSize=25;" parent="h1xKM3DgahZiNv9cewnH-1" vertex="1">
          <mxGeometry x="263.25" y="565" width="120" height="30" as="geometry" />
        </mxCell>
        <mxCell id="h1xKM3DgahZiNv9cewnH-7" value="" style="edgeStyle=orthogonalEdgeStyle;rounded=0;orthogonalLoop=1;jettySize=auto;html=1;strokeWidth=1;fontFamily=宋体;fontSize=25;" parent="h1xKM3DgahZiNv9cewnH-1" source="h1xKM3DgahZiNv9cewnH-8" target="h1xKM3DgahZiNv9cewnH-6" edge="1">
          <mxGeometry relative="1" as="geometry" />
        </mxCell>
        <mxCell id="h1xKM3DgahZiNv9cewnH-8" value="&lt;font&gt;审核成功，&lt;/font&gt;&lt;div&gt;&lt;font&gt;刷新待审核活动信息列表&lt;/font&gt;&lt;/div&gt;" style="rounded=0;whiteSpace=wrap;html=1;strokeColor=default;align=center;verticalAlign=middle;fontFamily=宋体;fontSize=25;fontColor=default;fillColor=default;strokeWidth=1;" parent="h1xKM3DgahZiNv9cewnH-1" vertex="1">
          <mxGeometry x="179.62" y="441" width="287.25" height="79" as="geometry" />
        </mxCell>
        <mxCell id="eMIkRcAbLWBnMwJoYwgT-1" value="" style="edgeStyle=orthogonalEdgeStyle;rounded=0;orthogonalLoop=1;jettySize=auto;html=1;strokeWidth=1;fontFamily=宋体;fontSize=25;" parent="h1xKM3DgahZiNv9cewnH-1" source="h1xKM3DgahZiNv9cewnH-10" target="eMIkRcAbLWBnMwJoYwgT-0" edge="1">
          <mxGeometry relative="1" as="geometry" />
        </mxCell>
        <mxCell id="h1xKM3DgahZiNv9cewnH-10" value="&lt;font&gt;选择审核状态&lt;/font&gt;" style="shape=parallelogram;perimeter=parallelogramPerimeter;whiteSpace=wrap;html=1;fixedSize=1;size=30.999989827474053;strokeWidth=1;fontFamily=宋体;fontSize=25;" parent="h1xKM3DgahZiNv9cewnH-1" vertex="1">
          <mxGeometry x="216" y="271" width="214.5" height="46" as="geometry" />
        </mxCell>
        <mxCell id="eMIkRcAbLWBnMwJoYwgT-2" value="" style="edgeStyle=orthogonalEdgeStyle;rounded=0;orthogonalLoop=1;jettySize=auto;html=1;strokeWidth=1;fontFamily=宋体;fontSize=25;" parent="h1xKM3DgahZiNv9cewnH-1" source="eMIkRcAbLWBnMwJoYwgT-0" target="h1xKM3DgahZiNv9cewnH-8" edge="1">
          <mxGeometry relative="1" as="geometry" />
        </mxCell>
        <mxCell id="eMIkRcAbLWBnMwJoYwgT-0" value="&lt;font&gt;填写审核意见&lt;/font&gt;" style="shape=parallelogram;perimeter=parallelogramPerimeter;whiteSpace=wrap;html=1;fixedSize=1;size=30.999989827474053;strokeWidth=1;fontFamily=宋体;fontSize=25;" parent="h1xKM3DgahZiNv9cewnH-1" vertex="1">
          <mxGeometry x="222" y="358" width="202.5" height="49" as="geometry" />
        </mxCell>
      </root>
    </mxGraphModel>
  </diagram>
  <diagram name="发布活动" id="KR6YWCBfrCGmPzHXE0nZ">
    <mxGraphModel dx="1737" dy="952" grid="0" gridSize="10" guides="1" tooltips="1" connect="1" arrows="1" fold="1" page="1" pageScale="1" pageWidth="1169" pageHeight="827" background="none" math="0" shadow="0">
      <root>
        <mxCell id="OFRgZFGE42Nt_mIUbJOW-0" />
        <mxCell id="OFRgZFGE42Nt_mIUbJOW-1" parent="OFRgZFGE42Nt_mIUbJOW-0" />
        <mxCell id="OFRgZFGE42Nt_mIUbJOW-2" value="&lt;font style=&quot;font-size: 22px;&quot;&gt;开始&lt;/font&gt;" style="shape=mxgraph.flowchart.terminator;strokeWidth=1;gradientColor=none;gradientDirection=north;fontStyle=0;html=1;fontFamily=宋体;" parent="OFRgZFGE42Nt_mIUbJOW-1" vertex="1">
          <mxGeometry x="206" y="60" width="120" height="30" as="geometry" />
        </mxCell>
        <mxCell id="bI28fIiQ09Fxs3hQfuWr-1" value="" style="edgeStyle=orthogonalEdgeStyle;rounded=0;orthogonalLoop=1;jettySize=auto;html=1;fontFamily=宋体;strokeWidth=1;" parent="OFRgZFGE42Nt_mIUbJOW-1" source="OFRgZFGE42Nt_mIUbJOW-4" target="bI28fIiQ09Fxs3hQfuWr-0" edge="1">
          <mxGeometry relative="1" as="geometry" />
        </mxCell>
        <mxCell id="OFRgZFGE42Nt_mIUbJOW-4" value="&lt;font style=&quot;font-size: 22px;&quot;&gt;选择&lt;/font&gt;&lt;div&gt;&lt;font style=&quot;font-size: 22px;&quot;&gt;待发布社团活动申请&lt;/font&gt;&lt;/div&gt;" style="shape=parallelogram;perimeter=parallelogramPerimeter;whiteSpace=wrap;html=1;fixedSize=1;size=30.999989827474053;fontFamily=宋体;strokeWidth=1;" parent="OFRgZFGE42Nt_mIUbJOW-1" vertex="1">
          <mxGeometry x="361" y="37" width="263" height="80" as="geometry" />
        </mxCell>
        <mxCell id="OFRgZFGE42Nt_mIUbJOW-5" style="fontStyle=1;strokeColor=#003366;strokeWidth=1;html=1;entryX=0.095;entryY=0.5;entryDx=0;entryDy=0;entryPerimeter=0;fontFamily=宋体;" parent="OFRgZFGE42Nt_mIUbJOW-1" source="OFRgZFGE42Nt_mIUbJOW-2" target="OFRgZFGE42Nt_mIUbJOW-4" edge="1">
          <mxGeometry relative="1" as="geometry" />
        </mxCell>
        <mxCell id="OFRgZFGE42Nt_mIUbJOW-6" value="&lt;font style=&quot;font-size: 22px;&quot;&gt;结束&lt;/font&gt;" style="shape=mxgraph.flowchart.terminator;strokeWidth=1;gradientColor=none;gradientDirection=north;fontStyle=0;html=1;fontFamily=宋体;" parent="OFRgZFGE42Nt_mIUbJOW-1" vertex="1">
          <mxGeometry x="1045" y="62" width="120" height="30" as="geometry" />
        </mxCell>
        <mxCell id="OFRgZFGE42Nt_mIUbJOW-7" value="" style="edgeStyle=orthogonalEdgeStyle;rounded=0;orthogonalLoop=1;jettySize=auto;html=1;exitX=1;exitY=0.5;exitDx=0;exitDy=0;fontFamily=宋体;strokeWidth=1;" parent="OFRgZFGE42Nt_mIUbJOW-1" source="OFRgZFGE42Nt_mIUbJOW-8" target="OFRgZFGE42Nt_mIUbJOW-6" edge="1">
          <mxGeometry relative="1" as="geometry" />
        </mxCell>
        <mxCell id="OFRgZFGE42Nt_mIUbJOW-8" value="&lt;font style=&quot;font-size: 22px;&quot;&gt;发布成功，&lt;/font&gt;&lt;div&gt;&lt;font style=&quot;font-size: 22px;&quot;&gt;刷新待发布活动信息列表&lt;/font&gt;&lt;/div&gt;" style="rounded=0;whiteSpace=wrap;html=1;strokeColor=default;align=center;verticalAlign=middle;fontFamily=宋体;fontSize=12;fontColor=default;fillColor=default;strokeWidth=1;" parent="OFRgZFGE42Nt_mIUbJOW-1" vertex="1">
          <mxGeometry x="853" y="34" width="140" height="86" as="geometry" />
        </mxCell>
        <mxCell id="NvKtUibS0bFOc_E0F6dW-0" style="edgeStyle=orthogonalEdgeStyle;rounded=0;orthogonalLoop=1;jettySize=auto;html=1;entryX=0;entryY=0.5;entryDx=0;entryDy=0;fontFamily=宋体;strokeWidth=1;" parent="OFRgZFGE42Nt_mIUbJOW-1" source="bI28fIiQ09Fxs3hQfuWr-0" target="OFRgZFGE42Nt_mIUbJOW-8" edge="1">
          <mxGeometry relative="1" as="geometry" />
        </mxCell>
        <mxCell id="bI28fIiQ09Fxs3hQfuWr-0" value="&lt;font style=&quot;font-size: 22px;&quot;&gt;点击发布&lt;/font&gt;" style="shape=parallelogram;perimeter=parallelogramPerimeter;whiteSpace=wrap;html=1;fixedSize=1;size=30.999989827474053;fontFamily=宋体;strokeWidth=1;" parent="OFRgZFGE42Nt_mIUbJOW-1" vertex="1">
          <mxGeometry x="670" y="45.5" width="149.5" height="63" as="geometry" />
        </mxCell>
      </root>
    </mxGraphModel>
  </diagram>
  <diagram name="日志自动记录流程图" id="bbC296RKMF5K9T1WOAbX">
    <mxGraphModel dx="1895" dy="1038" grid="0" gridSize="10" guides="1" tooltips="1" connect="1" arrows="1" fold="1" page="1" pageScale="1" pageWidth="1169" pageHeight="827" background="none" math="0" shadow="0">
      <root>
        <mxCell id="tYXL68hv0fi4-D43mRAy-0" />
        <mxCell id="tYXL68hv0fi4-D43mRAy-1" parent="tYXL68hv0fi4-D43mRAy-0" />
        <mxCell id="tYXL68hv0fi4-D43mRAy-2" value="&lt;font style=&quot;font-size: 22px;&quot;&gt;开始&lt;/font&gt;" style="shape=mxgraph.flowchart.terminator;strokeWidth=1;gradientColor=none;gradientDirection=north;fontStyle=0;html=1;fontFamily=宋体;" parent="tYXL68hv0fi4-D43mRAy-1" vertex="1">
          <mxGeometry x="194" y="60" width="120" height="30" as="geometry" />
        </mxCell>
        <mxCell id="tYXL68hv0fi4-D43mRAy-3" value="" style="edgeStyle=orthogonalEdgeStyle;rounded=0;orthogonalLoop=1;jettySize=auto;html=1;fontFamily=宋体;strokeWidth=1;" parent="tYXL68hv0fi4-D43mRAy-1" source="tYXL68hv0fi4-D43mRAy-4" target="tYXL68hv0fi4-D43mRAy-10" edge="1">
          <mxGeometry relative="1" as="geometry" />
        </mxCell>
        <mxCell id="tYXL68hv0fi4-D43mRAy-4" value="&lt;font style=&quot;font-size: 22px;&quot;&gt;获取操作名称&lt;/font&gt;" style="shape=parallelogram;perimeter=parallelogramPerimeter;whiteSpace=wrap;html=1;fixedSize=1;size=30.999989827474053;fontFamily=宋体;strokeWidth=1;" parent="tYXL68hv0fi4-D43mRAy-1" vertex="1">
          <mxGeometry x="376" y="44" width="185" height="63" as="geometry" />
        </mxCell>
        <mxCell id="tYXL68hv0fi4-D43mRAy-5" style="fontStyle=1;strokeColor=#003366;strokeWidth=1;html=1;fontFamily=宋体;" parent="tYXL68hv0fi4-D43mRAy-1" source="tYXL68hv0fi4-D43mRAy-2" target="tYXL68hv0fi4-D43mRAy-4" edge="1">
          <mxGeometry relative="1" as="geometry" />
        </mxCell>
        <mxCell id="tYXL68hv0fi4-D43mRAy-6" value="&lt;font style=&quot;font-size: 22px;&quot;&gt;结束&lt;/font&gt;" style="shape=mxgraph.flowchart.terminator;strokeWidth=1;gradientColor=none;gradientDirection=north;fontStyle=0;html=1;fontFamily=宋体;" parent="tYXL68hv0fi4-D43mRAy-1" vertex="1">
          <mxGeometry x="1016" y="60.5" width="120" height="30" as="geometry" />
        </mxCell>
        <mxCell id="tYXL68hv0fi4-D43mRAy-7" value="" style="edgeStyle=orthogonalEdgeStyle;rounded=0;orthogonalLoop=1;jettySize=auto;html=1;exitX=1;exitY=0.5;exitDx=0;exitDy=0;fontFamily=宋体;strokeWidth=1;" parent="tYXL68hv0fi4-D43mRAy-1" source="tYXL68hv0fi4-D43mRAy-8" target="tYXL68hv0fi4-D43mRAy-6" edge="1">
          <mxGeometry relative="1" as="geometry" />
        </mxCell>
        <mxCell id="tYXL68hv0fi4-D43mRAy-8" value="&lt;font style=&quot;font-size: 22px;&quot;&gt;调用service层save接口，新增日志信息&lt;/font&gt;" style="rounded=0;whiteSpace=wrap;html=1;strokeColor=default;align=center;verticalAlign=middle;fontFamily=宋体;fontSize=12;fontColor=default;fillColor=default;strokeWidth=1;" parent="tYXL68hv0fi4-D43mRAy-1" vertex="1">
          <mxGeometry x="812" y="24" width="160" height="102" as="geometry" />
        </mxCell>
        <mxCell id="tYXL68hv0fi4-D43mRAy-9" style="edgeStyle=orthogonalEdgeStyle;rounded=0;orthogonalLoop=1;jettySize=auto;html=1;entryX=0;entryY=0.5;entryDx=0;entryDy=0;fontFamily=宋体;strokeWidth=1;" parent="tYXL68hv0fi4-D43mRAy-1" source="tYXL68hv0fi4-D43mRAy-10" target="tYXL68hv0fi4-D43mRAy-8" edge="1">
          <mxGeometry relative="1" as="geometry" />
        </mxCell>
        <mxCell id="tYXL68hv0fi4-D43mRAy-10" value="&lt;font style=&quot;font-size: 22px;&quot;&gt;获取用户IP&lt;/font&gt;" style="shape=parallelogram;perimeter=parallelogramPerimeter;whiteSpace=wrap;html=1;fixedSize=1;size=30.999989827474053;fontFamily=宋体;strokeWidth=1;" parent="tYXL68hv0fi4-D43mRAy-1" vertex="1">
          <mxGeometry x="609" y="43.5" width="155.5" height="63" as="geometry" />
        </mxCell>
      </root>
    </mxGraphModel>
  </diagram>
  <diagram name="上传活动附件" id="T9hppEvJemzg38HNvo-C">
    <mxGraphModel dx="1042" dy="571" grid="0" gridSize="10" guides="1" tooltips="1" connect="1" arrows="1" fold="1" page="1" pageScale="1" pageWidth="1169" pageHeight="827" background="none" math="0" shadow="0">
      <root>
        <mxCell id="J0A1M6TFUZXnPdL6NyZ4-0" />
        <mxCell id="J0A1M6TFUZXnPdL6NyZ4-1" parent="J0A1M6TFUZXnPdL6NyZ4-0" />
        <mxCell id="J0A1M6TFUZXnPdL6NyZ4-2" value="&lt;font style=&quot;font-size: 22px;&quot;&gt;开始&lt;/font&gt;" style="shape=mxgraph.flowchart.terminator;strokeWidth=1;gradientColor=none;gradientDirection=north;fontStyle=0;html=1;fontFamily=宋体;" parent="J0A1M6TFUZXnPdL6NyZ4-1" vertex="1">
          <mxGeometry x="260" y="60" width="120" height="30" as="geometry" />
        </mxCell>
        <mxCell id="WJislMmen7EPYVyYs7y_-1" value="" style="edgeStyle=orthogonalEdgeStyle;rounded=0;orthogonalLoop=1;jettySize=auto;html=1;strokeWidth=1;fontFamily=宋体;" parent="J0A1M6TFUZXnPdL6NyZ4-1" source="J0A1M6TFUZXnPdL6NyZ4-4" target="WJislMmen7EPYVyYs7y_-0" edge="1">
          <mxGeometry relative="1" as="geometry" />
        </mxCell>
        <mxCell id="J0A1M6TFUZXnPdL6NyZ4-4" value="&lt;font style=&quot;font-size: 22px;&quot;&gt;选择社团活动&lt;/font&gt;" style="shape=parallelogram;perimeter=parallelogramPerimeter;whiteSpace=wrap;html=1;fixedSize=1;size=30.999989827474053;strokeWidth=1;fontFamily=宋体;" parent="J0A1M6TFUZXnPdL6NyZ4-1" vertex="1">
          <mxGeometry x="220.75" y="122" width="198.5" height="80" as="geometry" />
        </mxCell>
        <mxCell id="J0A1M6TFUZXnPdL6NyZ4-5" style="fontStyle=1;strokeColor=#003366;strokeWidth=1;html=1;fontFamily=宋体;" parent="J0A1M6TFUZXnPdL6NyZ4-1" source="J0A1M6TFUZXnPdL6NyZ4-2" target="J0A1M6TFUZXnPdL6NyZ4-4" edge="1">
          <mxGeometry relative="1" as="geometry" />
        </mxCell>
        <mxCell id="J0A1M6TFUZXnPdL6NyZ4-6" value="&lt;font style=&quot;font-size: 22px;&quot;&gt;结束&lt;/font&gt;" style="shape=mxgraph.flowchart.terminator;strokeWidth=1;gradientColor=none;gradientDirection=north;fontStyle=0;html=1;fontFamily=宋体;" parent="J0A1M6TFUZXnPdL6NyZ4-1" vertex="1">
          <mxGeometry x="260" y="569" width="120" height="30" as="geometry" />
        </mxCell>
        <mxCell id="J0A1M6TFUZXnPdL6NyZ4-7" value="" style="edgeStyle=orthogonalEdgeStyle;rounded=0;orthogonalLoop=1;jettySize=auto;html=1;strokeWidth=1;fontFamily=宋体;" parent="J0A1M6TFUZXnPdL6NyZ4-1" source="J0A1M6TFUZXnPdL6NyZ4-8" target="J0A1M6TFUZXnPdL6NyZ4-6" edge="1">
          <mxGeometry relative="1" as="geometry" />
        </mxCell>
        <mxCell id="J0A1M6TFUZXnPdL6NyZ4-8" value="&lt;font style=&quot;font-size: 22px;&quot;&gt;更新社团活动信息，&lt;/font&gt;&lt;div&gt;&lt;font style=&quot;font-size: 22px;&quot;&gt;刷新活动列表&lt;/font&gt;&lt;/div&gt;" style="rounded=0;whiteSpace=wrap;html=1;strokeColor=default;align=center;verticalAlign=middle;fontFamily=宋体;fontSize=12;fontColor=default;fillColor=default;strokeWidth=1;" parent="J0A1M6TFUZXnPdL6NyZ4-1" vertex="1">
          <mxGeometry x="214.01" y="468" width="211.99" height="61" as="geometry" />
        </mxCell>
        <mxCell id="J0A1M6TFUZXnPdL6NyZ4-11" value="" style="edgeStyle=orthogonalEdgeStyle;rounded=0;orthogonalLoop=1;jettySize=auto;html=1;strokeWidth=1;fontFamily=宋体;" parent="J0A1M6TFUZXnPdL6NyZ4-1" source="J0A1M6TFUZXnPdL6NyZ4-12" target="J0A1M6TFUZXnPdL6NyZ4-8" edge="1">
          <mxGeometry relative="1" as="geometry" />
        </mxCell>
        <mxCell id="J0A1M6TFUZXnPdL6NyZ4-12" value="&lt;font style=&quot;font-size: 22px;&quot;&gt;上传活动附件&lt;/font&gt;" style="shape=parallelogram;perimeter=parallelogramPerimeter;whiteSpace=wrap;html=1;fixedSize=1;size=30.999989827474053;strokeWidth=1;fontFamily=宋体;" parent="J0A1M6TFUZXnPdL6NyZ4-1" vertex="1">
          <mxGeometry x="231.26" y="358" width="177.5" height="80" as="geometry" />
        </mxCell>
        <mxCell id="WJislMmen7EPYVyYs7y_-2" value="" style="edgeStyle=orthogonalEdgeStyle;rounded=0;orthogonalLoop=1;jettySize=auto;html=1;strokeWidth=1;fontFamily=宋体;" parent="J0A1M6TFUZXnPdL6NyZ4-1" source="WJislMmen7EPYVyYs7y_-0" target="J0A1M6TFUZXnPdL6NyZ4-12" edge="1">
          <mxGeometry relative="1" as="geometry" />
        </mxCell>
        <mxCell id="WJislMmen7EPYVyYs7y_-0" value="&lt;font style=&quot;font-size: 22px;&quot;&gt;判断活动是否已结束？&lt;/font&gt;" style="shape=mxgraph.flowchart.decision;strokeWidth=1;gradientColor=none;gradientDirection=north;fontStyle=0;html=1;fontFamily=宋体;" parent="J0A1M6TFUZXnPdL6NyZ4-1" vertex="1">
          <mxGeometry x="178.13" y="240" width="283.75" height="80" as="geometry" />
        </mxCell>
        <mxCell id="WJislMmen7EPYVyYs7y_-4" style="edgeStyle=orthogonalEdgeStyle;rounded=0;orthogonalLoop=1;jettySize=auto;html=1;entryX=1;entryY=0.5;entryDx=0;entryDy=0;entryPerimeter=0;exitX=1;exitY=0.5;exitDx=0;exitDy=0;exitPerimeter=0;strokeWidth=1;fontFamily=宋体;" parent="J0A1M6TFUZXnPdL6NyZ4-1" source="WJislMmen7EPYVyYs7y_-0" target="J0A1M6TFUZXnPdL6NyZ4-6" edge="1">
          <mxGeometry relative="1" as="geometry">
            <Array as="points">
              <mxPoint x="488" y="279" />
              <mxPoint x="488" y="584" />
            </Array>
          </mxGeometry>
        </mxCell>
        <mxCell id="WJislMmen7EPYVyYs7y_-5" value="&lt;font style=&quot;font-size: 20px;&quot;&gt;否&lt;/font&gt;" style="text;html=1;align=center;verticalAlign=middle;resizable=0;points=[];autosize=1;strokeColor=none;fillColor=none;strokeWidth=1;fontFamily=宋体;" parent="J0A1M6TFUZXnPdL6NyZ4-1" vertex="1">
          <mxGeometry x="449" y="298" width="38" height="36" as="geometry" />
        </mxCell>
        <mxCell id="WJislMmen7EPYVyYs7y_-6" value="&lt;font style=&quot;font-size: 20px;&quot;&gt;是&lt;/font&gt;" style="text;html=1;align=center;verticalAlign=middle;resizable=0;points=[];autosize=1;strokeColor=none;fillColor=none;strokeWidth=1;fontFamily=宋体;" parent="J0A1M6TFUZXnPdL6NyZ4-1" vertex="1">
          <mxGeometry x="324" y="317" width="38" height="36" as="geometry" />
        </mxCell>
      </root>
    </mxGraphModel>
  </diagram>
  <diagram name="下载活动附件" id="IyiuXZ3l3A_Df5kX73KV">
    <mxGraphModel dx="1042" dy="571" grid="0" gridSize="10" guides="1" tooltips="1" connect="1" arrows="1" fold="1" page="1" pageScale="1" pageWidth="1169" pageHeight="827" background="none" math="0" shadow="0">
      <root>
        <mxCell id="V4BguyXjfqIna_tnUGiU-0" />
        <mxCell id="V4BguyXjfqIna_tnUGiU-1" parent="V4BguyXjfqIna_tnUGiU-0" />
        <mxCell id="V4BguyXjfqIna_tnUGiU-2" value="&lt;font style=&quot;font-size: 22px;&quot;&gt;开始&lt;/font&gt;" style="shape=mxgraph.flowchart.terminator;strokeWidth=1;gradientColor=none;gradientDirection=north;fontStyle=0;html=1;fontFamily=宋体;" parent="V4BguyXjfqIna_tnUGiU-1" vertex="1">
          <mxGeometry x="260" y="60" width="120" height="30" as="geometry" />
        </mxCell>
        <mxCell id="V4BguyXjfqIna_tnUGiU-3" value="" style="edgeStyle=orthogonalEdgeStyle;rounded=0;orthogonalLoop=1;jettySize=auto;html=1;fontFamily=宋体;strokeWidth=1;" parent="V4BguyXjfqIna_tnUGiU-1" source="V4BguyXjfqIna_tnUGiU-4" target="V4BguyXjfqIna_tnUGiU-12" edge="1">
          <mxGeometry relative="1" as="geometry" />
        </mxCell>
        <mxCell id="V4BguyXjfqIna_tnUGiU-4" value="&lt;font style=&quot;font-size: 22px;&quot;&gt;选择社团活动&lt;/font&gt;" style="shape=parallelogram;perimeter=parallelogramPerimeter;whiteSpace=wrap;html=1;fixedSize=1;size=30.999989827474053;fontFamily=宋体;strokeWidth=1;" parent="V4BguyXjfqIna_tnUGiU-1" vertex="1">
          <mxGeometry x="226.25" y="122" width="187.5" height="80" as="geometry" />
        </mxCell>
        <mxCell id="V4BguyXjfqIna_tnUGiU-5" style="fontStyle=1;strokeColor=#003366;strokeWidth=1;html=1;fontFamily=宋体;" parent="V4BguyXjfqIna_tnUGiU-1" source="V4BguyXjfqIna_tnUGiU-2" target="V4BguyXjfqIna_tnUGiU-4" edge="1">
          <mxGeometry relative="1" as="geometry" />
        </mxCell>
        <mxCell id="V4BguyXjfqIna_tnUGiU-6" value="&lt;font style=&quot;font-size: 22px;&quot;&gt;结束&lt;/font&gt;" style="shape=mxgraph.flowchart.terminator;strokeWidth=1;gradientColor=none;gradientDirection=north;fontStyle=0;html=1;fontFamily=宋体;" parent="V4BguyXjfqIna_tnUGiU-1" vertex="1">
          <mxGeometry x="260" y="578" width="120" height="30" as="geometry" />
        </mxCell>
        <mxCell id="V4BguyXjfqIna_tnUGiU-7" value="" style="edgeStyle=orthogonalEdgeStyle;rounded=0;orthogonalLoop=1;jettySize=auto;html=1;fontFamily=宋体;strokeWidth=1;" parent="V4BguyXjfqIna_tnUGiU-1" source="V4BguyXjfqIna_tnUGiU-8" target="V4BguyXjfqIna_tnUGiU-6" edge="1">
          <mxGeometry relative="1" as="geometry" />
        </mxCell>
        <mxCell id="V4BguyXjfqIna_tnUGiU-8" value="&lt;font style=&quot;font-size: 22px;&quot;&gt;下载活动附件&lt;/font&gt;" style="rounded=0;whiteSpace=wrap;html=1;strokeColor=default;align=center;verticalAlign=middle;fontFamily=宋体;fontSize=12;fontColor=default;fillColor=default;strokeWidth=1;" parent="V4BguyXjfqIna_tnUGiU-1" vertex="1">
          <mxGeometry x="260" y="491" width="120" height="60" as="geometry" />
        </mxCell>
        <mxCell id="V4BguyXjfqIna_tnUGiU-9" value="" style="edgeStyle=orthogonalEdgeStyle;rounded=0;orthogonalLoop=1;jettySize=auto;html=1;fontFamily=宋体;strokeWidth=1;" parent="V4BguyXjfqIna_tnUGiU-1" target="V4BguyXjfqIna_tnUGiU-8" edge="1">
          <mxGeometry relative="1" as="geometry">
            <mxPoint x="320" y="438" as="sourcePoint" />
          </mxGeometry>
        </mxCell>
        <mxCell id="V4BguyXjfqIna_tnUGiU-12" value="&lt;font style=&quot;font-size: 22px;&quot;&gt;判断活动是否已结束？&lt;/font&gt;" style="shape=mxgraph.flowchart.decision;strokeWidth=1;gradientColor=none;gradientDirection=north;fontStyle=0;html=1;fontFamily=宋体;" parent="V4BguyXjfqIna_tnUGiU-1" vertex="1">
          <mxGeometry x="167.88" y="240" width="302.75" height="93" as="geometry" />
        </mxCell>
        <mxCell id="V4BguyXjfqIna_tnUGiU-13" style="edgeStyle=orthogonalEdgeStyle;rounded=0;orthogonalLoop=1;jettySize=auto;html=1;exitX=1;exitY=0.5;exitDx=0;exitDy=0;exitPerimeter=0;fontFamily=宋体;strokeWidth=1;" parent="V4BguyXjfqIna_tnUGiU-1" source="V4BguyXjfqIna_tnUGiU-12" edge="1">
          <mxGeometry relative="1" as="geometry">
            <mxPoint x="378" y="592" as="targetPoint" />
            <Array as="points">
              <mxPoint x="501" y="287" />
              <mxPoint x="501" y="592" />
            </Array>
          </mxGeometry>
        </mxCell>
        <mxCell id="V4BguyXjfqIna_tnUGiU-14" value="&lt;font style=&quot;font-size: 20px;&quot;&gt;否&lt;/font&gt;" style="text;html=1;align=center;verticalAlign=middle;resizable=0;points=[];autosize=1;strokeColor=none;fillColor=none;fontFamily=宋体;strokeWidth=1;" parent="V4BguyXjfqIna_tnUGiU-1" vertex="1">
          <mxGeometry x="468" y="252" width="38" height="36" as="geometry" />
        </mxCell>
        <mxCell id="V4BguyXjfqIna_tnUGiU-15" value="&lt;font style=&quot;font-size: 20px;&quot;&gt;是&lt;/font&gt;" style="text;html=1;align=center;verticalAlign=middle;resizable=0;points=[];autosize=1;strokeColor=none;fillColor=none;fontFamily=宋体;strokeWidth=1;" parent="V4BguyXjfqIna_tnUGiU-1" vertex="1">
          <mxGeometry x="315" y="333" width="38" height="36" as="geometry" />
        </mxCell>
        <mxCell id="Ld9qfXTPdvZtp65MUOe0-0" style="edgeStyle=orthogonalEdgeStyle;rounded=0;orthogonalLoop=1;jettySize=auto;html=1;fontFamily=宋体;strokeWidth=1;" parent="V4BguyXjfqIna_tnUGiU-1" source="eMyzKGEoBWj4xc6NPHni-0" edge="1">
          <mxGeometry relative="1" as="geometry">
            <mxPoint x="501" y="414" as="targetPoint" />
          </mxGeometry>
        </mxCell>
        <mxCell id="eMyzKGEoBWj4xc6NPHni-0" value="&lt;font style=&quot;font-size: 22px;&quot;&gt;活动附件是否上传？&lt;/font&gt;" style="shape=mxgraph.flowchart.decision;strokeWidth=1;gradientColor=none;gradientDirection=north;fontStyle=0;html=1;fontFamily=宋体;" parent="V4BguyXjfqIna_tnUGiU-1" vertex="1">
          <mxGeometry x="196" y="374" width="248" height="80" as="geometry" />
        </mxCell>
        <mxCell id="eMyzKGEoBWj4xc6NPHni-1" style="edgeStyle=orthogonalEdgeStyle;rounded=0;orthogonalLoop=1;jettySize=auto;html=1;entryX=0.5;entryY=0.021;entryDx=0;entryDy=0;entryPerimeter=0;fontFamily=宋体;strokeWidth=1;" parent="V4BguyXjfqIna_tnUGiU-1" source="V4BguyXjfqIna_tnUGiU-12" target="eMyzKGEoBWj4xc6NPHni-0" edge="1">
          <mxGeometry relative="1" as="geometry">
            <mxPoint x="323" y="365" as="targetPoint" />
          </mxGeometry>
        </mxCell>
        <mxCell id="c5FbXgt-TUJSWOUjMpOB-0" value="&lt;font style=&quot;font-size: 20px;&quot;&gt;否&lt;/font&gt;" style="text;html=1;align=center;verticalAlign=middle;resizable=0;points=[];autosize=1;strokeColor=none;fillColor=none;fontFamily=宋体;strokeWidth=1;" parent="V4BguyXjfqIna_tnUGiU-1" vertex="1">
          <mxGeometry x="455" y="384" width="38" height="36" as="geometry" />
        </mxCell>
        <mxCell id="c5FbXgt-TUJSWOUjMpOB-1" value="&lt;font style=&quot;font-size: 20px;&quot;&gt;是&lt;/font&gt;" style="text;html=1;align=center;verticalAlign=middle;resizable=0;points=[];autosize=1;strokeColor=none;fillColor=none;fontFamily=宋体;strokeWidth=1;" parent="V4BguyXjfqIna_tnUGiU-1" vertex="1">
          <mxGeometry x="315" y="450" width="38" height="36" as="geometry" />
        </mxCell>
      </root>
    </mxGraphModel>
  </diagram>
  <diagram name="签到" id="_dTaN6U1otk1XQxcv4mW">
    <mxGraphModel dx="1042" dy="571" grid="0" gridSize="10" guides="1" tooltips="1" connect="1" arrows="1" fold="1" page="1" pageScale="1" pageWidth="1169" pageHeight="827" background="none" math="0" shadow="0">
      <root>
        <mxCell id="MKNJCfNX1loip0BZ1ozC-0" />
        <mxCell id="MKNJCfNX1loip0BZ1ozC-1" parent="MKNJCfNX1loip0BZ1ozC-0" />
        <mxCell id="MKNJCfNX1loip0BZ1ozC-2" value="&lt;font style=&quot;font-size: 22px;&quot;&gt;开始&lt;/font&gt;" style="shape=mxgraph.flowchart.terminator;strokeWidth=1;gradientColor=none;gradientDirection=north;fontStyle=0;html=1;fontFamily=宋体;" parent="MKNJCfNX1loip0BZ1ozC-1" vertex="1">
          <mxGeometry x="260.01" y="98" width="120" height="30" as="geometry" />
        </mxCell>
        <mxCell id="_lYbpSOTnEOG3NAN_fJG-2" value="" style="edgeStyle=orthogonalEdgeStyle;rounded=0;orthogonalLoop=1;jettySize=auto;html=1;fontFamily=宋体;strokeWidth=1;" parent="MKNJCfNX1loip0BZ1ozC-1" source="MKNJCfNX1loip0BZ1ozC-4" target="_lYbpSOTnEOG3NAN_fJG-0" edge="1">
          <mxGeometry relative="1" as="geometry" />
        </mxCell>
        <mxCell id="MKNJCfNX1loip0BZ1ozC-4" value="&lt;font style=&quot;font-size: 22px;&quot;&gt;点击活动签到按钮&lt;/font&gt;" style="shape=parallelogram;perimeter=parallelogramPerimeter;whiteSpace=wrap;html=1;fixedSize=1;size=30.999989827474053;fontFamily=宋体;strokeWidth=1;" parent="MKNJCfNX1loip0BZ1ozC-1" vertex="1">
          <mxGeometry x="192.5" y="172" width="253.5" height="46" as="geometry" />
        </mxCell>
        <mxCell id="MKNJCfNX1loip0BZ1ozC-5" style="fontStyle=1;strokeColor=#003366;strokeWidth=1;html=1;fontFamily=宋体;" parent="MKNJCfNX1loip0BZ1ozC-1" source="MKNJCfNX1loip0BZ1ozC-2" target="MKNJCfNX1loip0BZ1ozC-4" edge="1">
          <mxGeometry relative="1" as="geometry" />
        </mxCell>
        <mxCell id="MKNJCfNX1loip0BZ1ozC-6" value="&lt;font style=&quot;font-size: 22px;&quot;&gt;结束&lt;/font&gt;" style="shape=mxgraph.flowchart.terminator;strokeWidth=1;gradientColor=none;gradientDirection=north;fontStyle=0;html=1;fontFamily=宋体;" parent="MKNJCfNX1loip0BZ1ozC-1" vertex="1">
          <mxGeometry x="259.25" y="598" width="120" height="30" as="geometry" />
        </mxCell>
        <mxCell id="MKNJCfNX1loip0BZ1ozC-7" value="" style="edgeStyle=orthogonalEdgeStyle;rounded=0;orthogonalLoop=1;jettySize=auto;html=1;fontFamily=宋体;strokeWidth=1;" parent="MKNJCfNX1loip0BZ1ozC-1" source="MKNJCfNX1loip0BZ1ozC-8" target="MKNJCfNX1loip0BZ1ozC-6" edge="1">
          <mxGeometry relative="1" as="geometry" />
        </mxCell>
        <mxCell id="MKNJCfNX1loip0BZ1ozC-8" value="&lt;font style=&quot;font-size: 22px;&quot;&gt;更新用户参与进度&lt;/font&gt;" style="rounded=0;whiteSpace=wrap;html=1;strokeColor=default;align=center;verticalAlign=middle;fontFamily=宋体;fontSize=12;fontColor=default;fillColor=default;strokeWidth=1;" parent="MKNJCfNX1loip0BZ1ozC-1" vertex="1">
          <mxGeometry x="259.25" y="504" width="120" height="60" as="geometry" />
        </mxCell>
        <mxCell id="MKNJCfNX1loip0BZ1ozC-11" value="" style="edgeStyle=orthogonalEdgeStyle;rounded=0;orthogonalLoop=1;jettySize=auto;html=1;entryX=0.5;entryY=0;entryDx=0;entryDy=0;fontFamily=宋体;strokeWidth=1;" parent="MKNJCfNX1loip0BZ1ozC-1" source="MKNJCfNX1loip0BZ1ozC-12" target="MKNJCfNX1loip0BZ1ozC-8" edge="1">
          <mxGeometry relative="1" as="geometry">
            <mxPoint x="320" y="491" as="targetPoint" />
          </mxGeometry>
        </mxCell>
        <mxCell id="MKNJCfNX1loip0BZ1ozC-12" value="&lt;font style=&quot;font-size: 22px;&quot;&gt;判断是否在&lt;/font&gt;&lt;span style=&quot;font-size: 22px; background-color: transparent;&quot;&gt;活动&lt;/span&gt;&lt;div&gt;&lt;span style=&quot;font-size: 22px; background-color: transparent;&quot;&gt;签到范围内？&lt;/span&gt;&lt;/div&gt;" style="shape=mxgraph.flowchart.decision;strokeWidth=1;gradientColor=none;gradientDirection=north;fontStyle=0;html=1;fontFamily=宋体;" parent="MKNJCfNX1loip0BZ1ozC-1" vertex="1">
          <mxGeometry x="177.88" y="363" width="282.75" height="101" as="geometry" />
        </mxCell>
        <mxCell id="MKNJCfNX1loip0BZ1ozC-13" style="edgeStyle=orthogonalEdgeStyle;rounded=0;orthogonalLoop=1;jettySize=auto;html=1;entryX=1;entryY=0.5;entryDx=0;entryDy=0;entryPerimeter=0;exitX=0.965;exitY=0.481;exitDx=0;exitDy=0;exitPerimeter=0;fontFamily=宋体;strokeWidth=1;" parent="MKNJCfNX1loip0BZ1ozC-1" source="MKNJCfNX1loip0BZ1ozC-12" target="MKNJCfNX1loip0BZ1ozC-6" edge="1">
          <mxGeometry relative="1" as="geometry">
            <Array as="points">
              <mxPoint x="550" y="412" />
              <mxPoint x="550" y="613" />
            </Array>
          </mxGeometry>
        </mxCell>
        <mxCell id="MKNJCfNX1loip0BZ1ozC-14" value="&lt;font style=&quot;font-size: 20px;&quot;&gt;否&lt;/font&gt;" style="text;html=1;align=center;verticalAlign=middle;resizable=0;points=[];autosize=1;strokeColor=none;fillColor=none;fontFamily=宋体;strokeWidth=1;" parent="MKNJCfNX1loip0BZ1ozC-1" vertex="1">
          <mxGeometry x="484" y="378" width="38" height="36" as="geometry" />
        </mxCell>
        <mxCell id="MKNJCfNX1loip0BZ1ozC-15" value="&lt;font style=&quot;font-size: 20px;&quot;&gt;是&lt;/font&gt;" style="text;html=1;align=center;verticalAlign=middle;resizable=0;points=[];autosize=1;strokeColor=none;fillColor=none;fontFamily=宋体;strokeWidth=1;" parent="MKNJCfNX1loip0BZ1ozC-1" vertex="1">
          <mxGeometry x="317" y="461" width="38" height="36" as="geometry" />
        </mxCell>
        <mxCell id="_lYbpSOTnEOG3NAN_fJG-1" value="" style="edgeStyle=orthogonalEdgeStyle;rounded=0;orthogonalLoop=1;jettySize=auto;html=1;fontFamily=宋体;strokeWidth=1;" parent="MKNJCfNX1loip0BZ1ozC-1" source="_lYbpSOTnEOG3NAN_fJG-0" target="MKNJCfNX1loip0BZ1ozC-12" edge="1">
          <mxGeometry relative="1" as="geometry" />
        </mxCell>
        <mxCell id="_lYbpSOTnEOG3NAN_fJG-0" value="&lt;font style=&quot;font-size: 22px;&quot;&gt;系统获取&lt;/font&gt;&lt;div&gt;&lt;font style=&quot;font-size: 22px;&quot;&gt;当前IP地址信息&lt;/font&gt;&lt;/div&gt;" style="shape=parallelogram;perimeter=parallelogramPerimeter;whiteSpace=wrap;html=1;fixedSize=1;size=30.999989827474053;fontFamily=宋体;strokeWidth=1;" parent="MKNJCfNX1loip0BZ1ozC-1" vertex="1">
          <mxGeometry x="199.63" y="253" width="240.75" height="70" as="geometry" />
        </mxCell>
      </root>
    </mxGraphModel>
  </diagram>
  <diagram name="参与流程" id="6-tmMjWXu2SEE0Y-_GZC">
    <mxGraphModel dx="1042" dy="571" grid="0" gridSize="10" guides="1" tooltips="1" connect="1" arrows="1" fold="1" page="1" pageScale="1" pageWidth="1169" pageHeight="827" background="none" math="0" shadow="0">
      <root>
        <mxCell id="8_fWhRjzqztChDm3Ko84-0" />
        <mxCell id="8_fWhRjzqztChDm3Ko84-1" parent="8_fWhRjzqztChDm3Ko84-0" />
        <mxCell id="8_fWhRjzqztChDm3Ko84-2" value="&lt;font style=&quot;font-size: 22px;&quot;&gt;开始&lt;/font&gt;" style="shape=mxgraph.flowchart.terminator;strokeWidth=1;gradientColor=none;gradientDirection=north;fontStyle=0;html=1;fontFamily=宋体;" parent="8_fWhRjzqztChDm3Ko84-1" vertex="1">
          <mxGeometry x="260" y="60" width="120" height="30" as="geometry" />
        </mxCell>
        <mxCell id="8_fWhRjzqztChDm3Ko84-3" value="" style="edgeStyle=orthogonalEdgeStyle;rounded=0;orthogonalLoop=1;jettySize=auto;html=1;entryX=0.5;entryY=0;entryDx=0;entryDy=0;entryPerimeter=0;strokeWidth=1;fontFamily=宋体;" parent="8_fWhRjzqztChDm3Ko84-1" source="8_fWhRjzqztChDm3Ko84-4" target="8_fWhRjzqztChDm3Ko84-10" edge="1">
          <mxGeometry relative="1" as="geometry">
            <mxPoint x="319.17647058823513" y="254" as="targetPoint" />
          </mxGeometry>
        </mxCell>
        <mxCell id="8_fWhRjzqztChDm3Ko84-4" value="&lt;font style=&quot;font-size: 22px;&quot;&gt;点击参与活动按钮&lt;/font&gt;" style="shape=parallelogram;perimeter=parallelogramPerimeter;whiteSpace=wrap;html=1;fixedSize=1;size=30.999989827474053;strokeWidth=1;fontFamily=宋体;" parent="8_fWhRjzqztChDm3Ko84-1" vertex="1">
          <mxGeometry x="196" y="129" width="249.5" height="80" as="geometry" />
        </mxCell>
        <mxCell id="8_fWhRjzqztChDm3Ko84-5" style="fontStyle=1;strokeColor=#003366;strokeWidth=1;html=1;fontFamily=宋体;" parent="8_fWhRjzqztChDm3Ko84-1" source="8_fWhRjzqztChDm3Ko84-2" target="8_fWhRjzqztChDm3Ko84-4" edge="1">
          <mxGeometry relative="1" as="geometry" />
        </mxCell>
        <mxCell id="8_fWhRjzqztChDm3Ko84-6" value="&lt;font style=&quot;font-size: 22px;&quot;&gt;结束&lt;/font&gt;" style="shape=mxgraph.flowchart.terminator;strokeWidth=1;gradientColor=none;gradientDirection=north;fontStyle=0;html=1;fontFamily=宋体;" parent="8_fWhRjzqztChDm3Ko84-1" vertex="1">
          <mxGeometry x="265" y="797" width="120" height="30" as="geometry" />
        </mxCell>
        <mxCell id="YMHZK9cLByOxBAKZO_UV-7" value="" style="edgeStyle=orthogonalEdgeStyle;rounded=0;orthogonalLoop=1;jettySize=auto;html=1;strokeWidth=1;fontFamily=宋体;" parent="8_fWhRjzqztChDm3Ko84-1" source="8_fWhRjzqztChDm3Ko84-8" edge="1">
          <mxGeometry relative="1" as="geometry">
            <mxPoint x="331" y="526" as="targetPoint" />
          </mxGeometry>
        </mxCell>
        <mxCell id="8_fWhRjzqztChDm3Ko84-8" value="&lt;font style=&quot;font-size: 22px;&quot;&gt;获取用户&lt;/font&gt;&lt;div&gt;&lt;font style=&quot;font-size: 22px;&quot;&gt;当前&lt;span style=&quot;background-color: transparent; color: light-dark(rgb(0, 0, 0), rgb(255, 255, 255));&quot;&gt;活动参与进度&lt;/span&gt;&lt;/font&gt;&lt;/div&gt;" style="rounded=0;whiteSpace=wrap;html=1;strokeWidth=1;fontFamily=宋体;strokeColor=default;align=center;verticalAlign=middle;fontSize=12;fontColor=default;fillColor=default;" parent="8_fWhRjzqztChDm3Ko84-1" vertex="1">
          <mxGeometry x="225.13" y="374" width="188.25" height="78" as="geometry" />
        </mxCell>
        <mxCell id="8_fWhRjzqztChDm3Ko84-9" value="" style="edgeStyle=orthogonalEdgeStyle;rounded=0;orthogonalLoop=1;jettySize=auto;html=1;entryX=0.5;entryY=0;entryDx=0;entryDy=0;strokeWidth=1;fontFamily=宋体;" parent="8_fWhRjzqztChDm3Ko84-1" source="8_fWhRjzqztChDm3Ko84-10" target="8_fWhRjzqztChDm3Ko84-8" edge="1">
          <mxGeometry relative="1" as="geometry">
            <mxPoint x="319.25" y="381" as="targetPoint" />
          </mxGeometry>
        </mxCell>
        <mxCell id="8_fWhRjzqztChDm3Ko84-10" value="&lt;font style=&quot;font-size: 22px;&quot;&gt;判断活动&lt;span style=&quot;background-color: transparent; color: light-dark(rgb(0, 0, 0), rgb(255, 255, 255));&quot;&gt;是否&lt;/span&gt;&lt;/font&gt;&lt;div&gt;&lt;font style=&quot;font-size: 22px;&quot;&gt;&lt;span style=&quot;background-color: transparent; color: light-dark(rgb(0, 0, 0), rgb(255, 255, 255));&quot;&gt;开始&lt;/span&gt;&lt;span style=&quot;background-color: transparent; color: light-dark(rgb(0, 0, 0), rgb(255, 255, 255));&quot;&gt;？&lt;/span&gt;&lt;/font&gt;&lt;/div&gt;" style="shape=mxgraph.flowchart.decision;strokeWidth=1;gradientColor=none;gradientDirection=north;fontStyle=0;html=1;fontFamily=宋体;" parent="8_fWhRjzqztChDm3Ko84-1" vertex="1">
          <mxGeometry x="166.25" y="238" width="309" height="80" as="geometry" />
        </mxCell>
        <mxCell id="8_fWhRjzqztChDm3Ko84-11" style="edgeStyle=orthogonalEdgeStyle;rounded=0;orthogonalLoop=1;jettySize=auto;html=1;entryX=1;entryY=0.5;entryDx=0;entryDy=0;entryPerimeter=0;exitX=1;exitY=0.5;exitDx=0;exitDy=0;exitPerimeter=0;strokeWidth=1;fontFamily=宋体;" parent="8_fWhRjzqztChDm3Ko84-1" source="8_fWhRjzqztChDm3Ko84-10" target="8_fWhRjzqztChDm3Ko84-6" edge="1">
          <mxGeometry relative="1" as="geometry">
            <Array as="points">
              <mxPoint x="515" y="278" />
              <mxPoint x="515" y="812" />
            </Array>
          </mxGeometry>
        </mxCell>
        <mxCell id="8_fWhRjzqztChDm3Ko84-12" value="&lt;font style=&quot;font-size: 20px;&quot;&gt;否&lt;/font&gt;" style="text;html=1;align=center;verticalAlign=middle;resizable=0;points=[];autosize=1;strokeColor=none;fillColor=none;strokeWidth=1;fontFamily=宋体;" parent="8_fWhRjzqztChDm3Ko84-1" vertex="1">
          <mxGeometry x="482" y="247" width="38" height="36" as="geometry" />
        </mxCell>
        <mxCell id="8_fWhRjzqztChDm3Ko84-13" value="&lt;font style=&quot;font-size: 20px;&quot;&gt;是&lt;/font&gt;" style="text;html=1;align=center;verticalAlign=middle;resizable=0;points=[];autosize=1;strokeColor=none;fillColor=none;strokeWidth=1;fontFamily=宋体;" parent="8_fWhRjzqztChDm3Ko84-1" vertex="1">
          <mxGeometry x="310.25" y="326" width="38" height="36" as="geometry" />
        </mxCell>
        <mxCell id="IOQj20b633IM8TR9te0N-4" value="" style="edgeStyle=orthogonalEdgeStyle;rounded=0;orthogonalLoop=1;jettySize=auto;html=1;strokeWidth=1;fontFamily=宋体;" parent="8_fWhRjzqztChDm3Ko84-1" source="IOQj20b633IM8TR9te0N-1" target="IOQj20b633IM8TR9te0N-3" edge="1">
          <mxGeometry relative="1" as="geometry" />
        </mxCell>
        <mxCell id="IOQj20b633IM8TR9te0N-1" value="&lt;font style=&quot;font-size: 22px;&quot;&gt;参与活动&lt;/font&gt;" style="rounded=0;whiteSpace=wrap;html=1;strokeColor=default;align=center;verticalAlign=middle;fontFamily=宋体;fontSize=12;fontColor=default;fillColor=default;strokeWidth=1;" parent="8_fWhRjzqztChDm3Ko84-1" vertex="1">
          <mxGeometry x="260.76" y="602" width="120" height="43" as="geometry" />
        </mxCell>
        <mxCell id="YMHZK9cLByOxBAKZO_UV-9" style="edgeStyle=orthogonalEdgeStyle;rounded=0;orthogonalLoop=1;jettySize=auto;html=1;entryX=1;entryY=0.5;entryDx=0;entryDy=0;strokeWidth=1;fontFamily=宋体;" parent="8_fWhRjzqztChDm3Ko84-1" source="IOQj20b633IM8TR9te0N-3" target="8_fWhRjzqztChDm3Ko84-8" edge="1">
          <mxGeometry relative="1" as="geometry">
            <mxPoint x="425.7647202435662" y="385.94120519301464" as="targetPoint" />
            <Array as="points">
              <mxPoint x="501" y="713" />
              <mxPoint x="501" y="413" />
            </Array>
          </mxGeometry>
        </mxCell>
        <mxCell id="IOQj20b633IM8TR9te0N-3" value="&lt;font style=&quot;font-size: 22px;&quot;&gt;更新用户&lt;/font&gt;&lt;div&gt;&lt;font style=&quot;font-size: 22px;&quot;&gt;当前&lt;span style=&quot;background-color: transparent; color: light-dark(rgb(0, 0, 0), rgb(255, 255, 255));&quot;&gt;活动参与进度&lt;/span&gt;&lt;/font&gt;&lt;/div&gt;" style="rounded=0;whiteSpace=wrap;html=1;strokeColor=default;align=center;verticalAlign=middle;fontFamily=宋体;fontSize=12;fontColor=default;fillColor=default;strokeWidth=1;" parent="8_fWhRjzqztChDm3Ko84-1" vertex="1">
          <mxGeometry x="246.63" y="678" width="148.25" height="80" as="geometry" />
        </mxCell>
        <mxCell id="YMHZK9cLByOxBAKZO_UV-3" value="" style="edgeStyle=orthogonalEdgeStyle;rounded=0;orthogonalLoop=1;jettySize=auto;html=1;strokeWidth=1;fontFamily=宋体;" parent="8_fWhRjzqztChDm3Ko84-1" source="YMHZK9cLByOxBAKZO_UV-0" target="IOQj20b633IM8TR9te0N-1" edge="1">
          <mxGeometry relative="1" as="geometry" />
        </mxCell>
        <mxCell id="YMHZK9cLByOxBAKZO_UV-0" value="&lt;font style=&quot;font-size: 22px;&quot;&gt;判断活动参与&lt;/font&gt;&lt;div&gt;&lt;font style=&quot;font-size: 22px;&quot;&gt;流程&lt;/font&gt;&lt;span style=&quot;font-size: 22px; background-color: transparent;&quot;&gt;是否为空&lt;/span&gt;&lt;span style=&quot;font-size: 22px; background-color: transparent;&quot;&gt;？&lt;/span&gt;&lt;/div&gt;" style="shape=mxgraph.flowchart.decision;strokeWidth=1;gradientColor=none;gradientDirection=north;fontStyle=0;html=1;fontFamily=宋体;" parent="8_fWhRjzqztChDm3Ko84-1" vertex="1">
          <mxGeometry x="145.5" y="476" width="350.5" height="80" as="geometry" />
        </mxCell>
        <mxCell id="YMHZK9cLByOxBAKZO_UV-1" style="edgeStyle=orthogonalEdgeStyle;rounded=0;orthogonalLoop=1;jettySize=auto;html=1;entryX=0;entryY=0.5;entryDx=0;entryDy=0;entryPerimeter=0;exitX=0.012;exitY=0.501;exitDx=0;exitDy=0;exitPerimeter=0;strokeWidth=1;fontFamily=宋体;" parent="8_fWhRjzqztChDm3Ko84-1" source="YMHZK9cLByOxBAKZO_UV-0" target="8_fWhRjzqztChDm3Ko84-6" edge="1">
          <mxGeometry relative="1" as="geometry">
            <Array as="points">
              <mxPoint x="129" y="516" />
              <mxPoint x="129" y="812" />
            </Array>
          </mxGeometry>
        </mxCell>
        <mxCell id="OvTJlL3kytmTcMeecI-q-0" value="&lt;font style=&quot;font-size: 20px;&quot;&gt;是&lt;/font&gt;" style="text;html=1;align=center;verticalAlign=middle;resizable=0;points=[];autosize=1;strokeColor=none;fillColor=none;strokeWidth=1;fontFamily=宋体;" parent="8_fWhRjzqztChDm3Ko84-1" vertex="1">
          <mxGeometry x="90" y="536" width="38" height="36" as="geometry" />
        </mxCell>
        <mxCell id="OvTJlL3kytmTcMeecI-q-3" value="&lt;font style=&quot;font-size: 20px;&quot;&gt;否&lt;/font&gt;" style="text;html=1;align=center;verticalAlign=middle;resizable=0;points=[];autosize=1;strokeColor=none;fillColor=none;strokeWidth=1;fontFamily=宋体;" parent="8_fWhRjzqztChDm3Ko84-1" vertex="1">
          <mxGeometry x="327" y="555" width="38" height="36" as="geometry" />
        </mxCell>
      </root>
    </mxGraphModel>
  </diagram>
</mxfile>
